<?xml version="1.0" standalone="no"?>
<!DOCTYPE svg PUBLIC "-//W3C//DTD SVG 20010904//EN"
 "http://www.w3.org/TR/2001/REC-SVG-20010904/DTD/svg10.dtd">
<svg version="1.0" xmlns="http://www.w3.org/2000/svg"
 width="1024.000000pt" height="1024.000000pt" viewBox="0 0 1024.000000 1024.000000"
 preserveAspectRatio="xMidYMid meet">

<g transform="translate(0.000000,1024.000000) scale(0.100000,-0.100000)"
fill="#000000" stroke="none">
<path d="M4727 9424 c7 -3 9 -13 6 -22 -3 -9 -3 -14 2 -10 4 4 15 2 23 -5 11
-9 11 -4 -2 16 -10 15 -23 27 -30 26 -7 0 -7 -2 1 -5z"/>
<path d="M5228 9423 c7 -3 16 -2 19 1 4 3 -2 6 -13 5 -11 0 -14 -3 -6 -6z"/>
<path d="M5330 9420 c-9 -6 -10 -10 -3 -10 6 0 15 5 18 10 8 12 4 12 -15 0z"/>
<path d="M5423 9413 c9 -2 14 -9 11 -15 -4 -7 -2 -8 5 -4 15 10 4 26 -17 25
-15 -1 -15 -2 1 -6z"/>
<path d="M4875 9394 c-170 -30 -377 -114 -536 -219 -55 -36 -105 -62 -111 -59
-6 4 -8 3 -5 -3 3 -5 -31 -44 -77 -85 -135 -124 -268 -315 -324 -465 -25 -69
-29 -74 -52 -69 -163 35 -349 32 -500 -8 -136 -36 -269 -95 -363 -162 -48 -34
-63 -42 -52 -25 3 5 1 12 -4 15 -5 4 -12 2 -15 -3 -4 -5 -1 -13 5 -16 6 -4
-27 -44 -81 -98 -218 -218 -322 -448 -336 -747 -18 -345 94 -650 318 -871 80
-79 190 -159 276 -203 72 -36 221 -86 280 -94 l52 -7 3 -760 c2 -744 2 -761
22 -795 12 -19 36 -43 55 -52 33 -17 135 -18 1697 -18 1848 0 1703 -6 1753 68
l25 36 3 761 2 762 68 12 c147 27 346 134 484 261 373 341 466 962 210 1403
-48 83 -142 205 -199 258 -245 228 -606 346 -916 298 -40 -6 -78 -16 -84 -21
-9 -7 -13 -7 -13 1 0 18 -70 168 -109 236 -203 348 -584 602 -1006 670 -113
19 -363 18 -470 -1z m521 -308 c204 -50 390 -153 544 -302 129 -125 221 -267
280 -434 29 -80 51 -113 94 -139 41 -25 88 -26 170 -4 90 25 328 24 416 -2
302 -88 519 -300 600 -586 27 -94 37 -287 21 -385 -25 -147 -112 -344 -154
-350 -11 -1 -22 -6 -25 -10 -4 -4 1 -4 11 -1 28 10 20 -5 -40 -72 -74 -83
-219 -191 -187 -139 4 7 3 8 -5 4 -6 -4 -9 -11 -6 -16 15 -24 -172 -92 -313
-114 -109 -17 -137 -32 -163 -89 -18 -40 -19 -77 -19 -774 l0 -733 -1495 0
-1495 0 -2 744 c-3 738 -3 745 -24 773 -37 49 -76 69 -170 83 -167 24 -316 90
-431 189 -23 19 -32 38 -13 26 18 -11 11 1 -12 21 -19 15 -20 16 -9 2 9 -12 9
-18 2 -18 -16 0 -122 133 -117 147 3 7 1 12 -5 10 -17 -3 -77 120 -104 214
-33 114 -45 230 -34 328 14 122 78 329 99 316 5 -3 8 0 5 7 -8 22 52 114 122
188 203 216 484 300 795 240 128 -25 175 -25 211 -1 39 25 52 47 83 132 36 99
97 220 146 288 55 76 139 161 151 154 6 -3 7 -1 4 5 -10 15 76 88 178 151 137
86 309 147 477 171 107 15 301 4 414 -24z"/>
<path d="M5118 9103 c12 -2 30 -2 40 0 9 3 -1 5 -23 4 -22 0 -30 -2 -17 -4z"/>
<path d="M5128 9083 c7 -3 16 -2 19 1 4 3 -2 6 -13 5 -11 0 -14 -3 -6 -6z"/>
<path d="M5208 9083 c7 -3 16 -2 19 1 4 3 -2 6 -13 5 -11 0 -14 -3 -6 -6z"/>
<path d="M4883 9073 c4 -3 5 -9 2 -13 -9 -15 10 -18 23 -4 7 8 8 14 3 14 -5 0
-15 2 -23 3 -7 2 -10 2 -5 0z"/>
<path d="M5405 9059 c-4 -6 -5 -12 -2 -15 2 -3 7 2 10 11 7 17 1 20 -8 4z"/>
<path d="M5527 9023 c-10 -9 -9 -23 1 -23 5 0 9 7 9 15 0 17 -1 18 -10 8z"/>
<path d="M4695 9000 c-3 -6 1 -7 9 -4 18 7 21 14 7 14 -6 0 -13 -4 -16 -10z"/>
<path d="M4658 8983 c7 -3 16 -2 19 1 4 3 -2 6 -13 5 -11 0 -14 -3 -6 -6z"/>
<path d="M5537 8979 c7 -7 15 -10 18 -7 3 3 -2 9 -12 12 -14 6 -15 5 -6 -5z"/>
<path d="M4685 8970 c-3 -5 -1 -10 4 -10 6 0 11 5 11 10 0 6 -2 10 -4 10 -3 0
-8 -4 -11 -10z"/>
<path d="M5580 8970 c0 -5 5 -10 11 -10 5 0 7 5 4 10 -3 6 -8 10 -11 10 -2 0
-4 -4 -4 -10z"/>
<path d="M5630 8970 c-12 -7 -10 -9 8 -7 12 0 22 5 22 9 0 11 -12 10 -30 -2z"/>
<path d="M5716 8918 c3 -5 10 -6 15 -3 13 9 11 12 -6 12 -8 0 -12 -4 -9 -9z"/>
<path d="M4493 8898 c-1 -10 0 -18 2 -18 2 0 9 8 14 18 7 14 6 19 -3 19 -6 0
-13 -9 -13 -19z"/>
<path d="M4376 8831 c-11 -12 -14 -21 -7 -26 6 -3 12 -4 12 -1 1 3 2 9 3 14 1
4 5 13 9 20 12 18 2 15 -17 -7z"/>
<path d="M5853 8815 c-8 -9 -5 -12 18 -11 34 1 35 2 12 15 -12 6 -22 5 -30 -4z"/>
<path d="M4286 8751 c-10 -10 -14 -21 -9 -24 5 -3 13 6 20 19 13 29 11 30 -11
5z"/>
<path d="M6012 8668 c-17 -17 -15 -28 6 -27 11 0 12 2 4 6 -10 4 -10 8 -1 19
14 17 8 19 -9 2z"/>
<path d="M6084 8529 c3 -16 34 -20 43 -7 4 7 -1 9 -15 6 -12 -3 -23 -2 -26 3
-2 5 -3 4 -2 -2z"/>
<path d="M6127 8503 c-13 -12 -7 -23 11 -22 10 0 12 3 4 6 -6 2 -10 9 -6 14 6
10 0 12 -9 2z"/>
<path d="M6160 8385 c0 -2 4 -15 9 -29 7 -17 7 -26 -2 -29 -7 -3 -2 -4 10 -4
12 1 25 7 28 15 3 8 0 10 -7 6 -7 -5 -9 0 -6 14 4 14 0 22 -13 25 -11 3 -19 4
-19 2z"/>
<path d="M4015 8260 c4 -6 11 -8 16 -5 14 9 11 15 -7 15 -8 0 -12 -5 -9 -10z"/>
<path d="M6260 8226 c0 -2 8 -10 18 -17 15 -13 16 -12 3 4 -13 16 -21 21 -21
13z"/>
<path d="M3601 8204 c0 -11 3 -14 6 -6 3 7 2 16 -1 19 -3 4 -6 -2 -5 -13z"/>
<path d="M6625 8210 c11 -5 27 -9 35 -9 13 -1 13 0 0 9 -8 5 -24 9 -35 9 l-20
0 20 -9z"/>
<path d="M3525 8200 c3 -5 8 -10 11 -10 2 0 4 5 4 10 0 6 -5 10 -11 10 -5 0
-7 -4 -4 -10z"/>
<path d="M6723 8195 c0 -7 6 -11 14 -8 7 3 13 6 13 8 0 2 -6 5 -13 8 -8 3 -14
-1 -14 -8z"/>
<path d="M6808 8203 c7 -3 16 -2 19 1 4 3 -2 6 -13 5 -11 0 -14 -3 -6 -6z"/>
<path d="M3705 8192 c-11 -4 -21 -13 -23 -21 -2 -11 0 -12 10 -4 7 6 27 9 43
7 17 -1 22 0 12 3 -9 2 -15 9 -12 14 7 10 0 10 -30 1z"/>
<path d="M6508 8193 c7 -3 16 -2 19 1 4 3 -2 6 -13 5 -11 0 -14 -3 -6 -6z"/>
<path d="M3365 8180 c-3 -6 1 -7 9 -4 18 7 21 14 7 14 -6 0 -13 -4 -16 -10z"/>
<path d="M6820 8186 c0 -2 7 -7 16 -10 8 -3 12 -2 9 4 -6 10 -25 14 -25 6z"/>
<path d="M6890 8170 c8 -5 22 -9 30 -9 10 0 8 3 -5 9 -27 12 -43 12 -25 0z"/>
<path d="M3165 8120 c6 -10 3 -12 -11 -7 -18 7 -18 6 -2 -6 10 -8 15 -17 11
-21 -4 -4 1 -4 12 0 11 5 14 9 7 12 -7 2 -10 8 -7 12 3 5 0 12 -6 16 -8 5 -9
3 -4 -6z"/>
<path d="M7165 8040 c3 -5 8 -10 11 -10 2 0 4 5 4 10 0 6 -5 10 -11 10 -5 0
-7 -4 -4 -10z"/>
<path d="M7193 8035 c0 -8 4 -12 9 -9 5 3 6 10 3 15 -9 13 -12 11 -12 -6z"/>
<path d="M3005 8020 c-16 -17 -16 -20 -3 -15 9 4 19 13 22 21 7 19 2 18 -19
-6z"/>
<path d="M7259 7987 c6 -8 7 -18 3 -23 -4 -5 -3 -6 2 -1 5 4 21 -3 35 -15 14
-13 10 -6 -8 15 -33 35 -56 52 -32 24z"/>
<path d="M2940 7940 c0 -5 5 -10 10 -10 6 0 10 5 10 10 0 6 -4 10 -10 10 -5 0
-10 -4 -10 -10z"/>
<path d="M2909 7923 c-13 -16 -12 -17 4 -4 9 7 17 15 17 17 0 8 -8 3 -21 -13z"/>
<path d="M7364 7818 c-4 -5 -3 -12 0 -15 3 -4 6 0 6 7 0 9 5 8 13 -5 10 -12
16 -14 21 -7 4 7 2 12 -4 12 -6 0 -9 4 -6 8 3 5 -2 9 -10 9 -8 0 -17 -4 -20
-9z"/>
<path d="M2840 7791 c15 -30 30 -35 17 -6 -7 14 -16 25 -20 25 -4 0 -3 -9 3
-19z"/>
<path d="M7400 7770 c0 -5 5 -10 11 -10 5 0 7 5 4 10 -3 6 -8 10 -11 10 -2 0
-4 -4 -4 -10z"/>
<path d="M7440 7639 c0 -5 5 -7 12 -3 7 5 9 1 6 -13 -4 -16 -1 -19 12 -16 17
5 17 6 2 24 -18 21 -32 25 -32 8z"/>
<path d="M2770 7610 c0 -5 5 -10 11 -10 5 0 7 5 4 10 -3 6 -8 10 -11 10 -2 0
-4 -4 -4 -10z"/>
<path d="M2741 7264 c0 -11 3 -14 6 -6 3 7 2 16 -1 19 -3 4 -6 -2 -5 -13z"/>
<path d="M7480 7270 c0 -5 5 -10 10 -10 6 0 10 5 10 10 0 6 -4 10 -10 10 -5 0
-10 -4 -10 -10z"/>
<path d="M2776 7248 c3 -5 10 -6 15 -3 13 9 11 12 -6 12 -8 0 -12 -4 -9 -9z"/>
<path d="M7473 7205 c-6 -6 -8 -18 -3 -24 5 -9 9 -5 13 10 7 28 6 31 -10 14z"/>
<path d="M2780 7110 c0 -8 5 -22 10 -30 9 -13 10 -13 10 0 0 8 -5 22 -10 30
-9 13 -10 13 -10 0z"/>
<path d="M7445 7110 c3 -5 8 -10 11 -10 2 0 4 5 4 10 0 6 -5 10 -11 10 -5 0
-7 -4 -4 -10z"/>
<path d="M7441 7073 c0 -11 3 -13 6 -5 2 6 10 9 15 6 7 -4 8 -2 4 4 -11 18
-26 14 -25 -5z"/>
<path d="M7435 7019 c-4 -6 -5 -12 -2 -15 2 -3 7 2 10 11 7 17 1 20 -8 4z"/>
<path d="M2846 6945 c-4 -13 -2 -14 14 -5 23 13 26 20 6 20 -8 0 -16 -7 -20
-15z"/>
<path d="M7360 6940 c0 -22 24 -27 36 -8 5 8 2 9 -10 5 -14 -5 -17 -3 -12 8 3
8 1 15 -4 15 -6 0 -10 -9 -10 -20z"/>
<path d="M7280 6866 c0 -13 21 -26 43 -26 12 0 8 15 -6 16 -28 2 -31 6 -7 14
l25 8 -27 1 c-18 1 -28 -4 -28 -13z"/>
<path d="M2916 6850 c3 -14 10 -29 14 -34 13 -13 6 16 -8 39 -12 19 -13 18 -6
-5z"/>
<path d="M7220 6789 c0 -5 5 -7 10 -4 6 3 10 8 10 11 0 2 -4 4 -10 4 -5 0 -10
-5 -10 -11z"/>
<path d="M7219 6733 c-13 -16 -12 -17 4 -4 9 7 17 15 17 17 0 8 -8 3 -21 -13z"/>
<path d="M3046 6708 c3 -5 10 -6 15 -3 13 9 11 12 -6 12 -8 0 -12 -4 -9 -9z"/>
<path d="M7125 6710 c-3 -6 1 -7 9 -4 18 7 21 14 7 14 -6 0 -13 -4 -16 -10z"/>
<path d="M3083 6695 c0 -8 4 -12 9 -9 5 3 6 10 3 15 -9 13 -12 11 -12 -6z"/>
<path d="M7120 6686 c0 -2 7 -6 15 -10 8 -3 15 -1 15 4 0 6 -7 10 -15 10 -8 0
-15 -2 -15 -4z"/>
<path d="M3185 6630 c3 -5 8 -10 11 -10 2 0 4 5 4 10 0 6 -5 10 -11 10 -5 0
-7 -4 -4 -10z"/>
<path d="M7016 6631 c-3 -5 1 -12 10 -15 10 -4 13 -2 8 6 -5 8 -2 9 9 5 10 -3
17 -2 17 3 0 12 -37 13 -44 1z"/>
<path d="M3248 6613 c6 -2 18 -2 25 0 6 3 1 5 -13 5 -14 0 -19 -2 -12 -5z"/>
<path d="M6890 6590 c-13 -8 -12 -10 3 -10 9 0 17 5 17 10 0 12 -1 12 -20 0z"/>
<path d="M3335 6580 c-3 -6 1 -7 9 -4 18 7 21 14 7 14 -6 0 -13 -4 -16 -10z"/>
<path d="M3500 6551 c0 -5 10 -7 22 -3 16 4 19 2 13 -8 -5 -9 -4 -11 4 -6 6 4
9 12 6 17 -8 12 -45 12 -45 0z"/>
<path d="M6680 6556 c0 -2 7 -7 16 -10 8 -3 12 -2 9 4 -6 10 -25 14 -25 6z"/>
<path d="M6580 6388 c0 -4 4 -8 10 -8 14 0 11 -162 -3 -179 -9 -12 -9 -13 1
-7 9 5 12 -13 12 -79 0 -60 -3 -84 -11 -79 -8 5 -8 1 0 -14 14 -26 14 -35 1
-27 -6 4 -10 -7 -10 -24 0 -17 5 -31 10 -31 15 0 12 -77 -2 -83 -10 -4 -10 -6
0 -6 9 -1 12 -26 12 -92 0 -57 -4 -88 -10 -84 -5 3 -10 1 -10 -4 0 -6 3 -11 8
-11 4 0 9 -34 10 -76 2 -52 0 -74 -7 -69 -6 3 -11 1 -11 -4 0 -6 5 -11 11 -11
8 0 7 -6 -2 -17 -10 -11 -10 -14 -1 -9 9 5 12 -6 12 -43 0 -34 -4 -51 -12 -51
-10 0 -10 -2 0 -9 16 -10 15 -129 -2 -150 -8 -11 -8 -13 2 -7 7 4 12 1 12 -9
0 -9 -4 -13 -10 -10 -6 4 -10 -5 -10 -20 0 -15 4 -24 10 -20 6 4 10 -5 10 -20
0 -15 -4 -24 -10 -20 -5 3 -10 0 -10 -9 0 -8 -6 -16 -12 -19 -10 -4 -10 -7 0
-18 14 -15 17 -33 4 -25 -5 3 -9 -1 -9 -9 0 -8 4 -15 9 -15 15 0 21 30 8 45
-10 12 -9 15 4 15 19 0 20 -20 3 -77 l-13 -43 -1464 0 c-805 0 -1466 -2 -1468
-5 -3 -3 662 -4 1479 -3 l1484 3 3 721 c2 636 0 721 -13 721 -8 0 -15 -4 -15
-9z"/>
<path d="M3643 6285 c0 -27 2 -38 4 -22 2 15 2 37 0 50 -2 12 -4 0 -4 -28z"/>
<path d="M3641 6174 c0 -11 3 -14 6 -6 3 7 2 16 -1 19 -3 4 -6 -2 -5 -13z"/>
<path d="M6582 6125 c0 -16 2 -22 5 -12 2 9 2 23 0 30 -3 6 -5 -1 -5 -18z"/>
<path d="M3641 6094 c0 -11 3 -14 6 -6 3 7 2 16 -1 19 -3 4 -6 -2 -5 -13z"/>
<path d="M3642 5865 c0 -16 2 -22 5 -12 2 9 2 23 0 30 -3 6 -5 -1 -5 -18z"/>
<path d="M6580 5815 c0 -14 -6 -25 -12 -25 -10 0 -10 -2 -1 -8 6 -4 13 -21 16
-37 2 -17 5 -2 6 33 0 34 -1 62 -4 62 -3 0 -5 -11 -5 -25z"/>
<path d="M3642 5690 c0 -14 2 -19 5 -12 2 6 2 18 0 25 -3 6 -5 1 -5 -13z"/>
<path d="M3642 5625 c0 -16 2 -22 5 -12 2 9 2 23 0 30 -3 6 -5 -1 -5 -18z"/>
<path d="M6582 5570 c0 -19 2 -27 5 -17 2 9 2 25 0 35 -3 9 -5 1 -5 -18z"/>
<path d="M3642 5540 c0 -14 2 -19 5 -12 2 6 2 18 0 25 -3 6 -5 1 -5 -13z"/>
<path d="M6562 5465 c0 -16 2 -22 5 -12 2 9 2 23 0 30 -3 6 -5 -1 -5 -18z"/>
<path d="M3641 5444 c0 -11 3 -14 6 -6 3 7 2 16 -1 19 -3 4 -6 -2 -5 -13z"/>
<path d="M6577 5413 c4 -11 3 -14 -5 -9 -8 5 -12 0 -12 -14 0 -19 2 -20 15 -6
17 16 20 46 5 46 -5 0 -6 -7 -3 -17z"/>
<path d="M6581 5334 c0 -11 3 -14 6 -6 3 7 2 16 -1 19 -3 4 -6 -2 -5 -13z"/>
<path d="M3642 5135 c1 -20 4 -31 8 -25 7 11 2 60 -6 60 -2 0 -3 -16 -2 -35z"/>
<path d="M3642 5065 c0 -16 2 -22 5 -12 2 9 2 23 0 30 -3 6 -5 -1 -5 -18z"/>
<path d="M4565 9329 c-4 -6 -4 -13 -1 -16 3 -4 6 -1 6 6 0 7 5 9 12 5 7 -4 8
-3 4 4 -9 15 -13 15 -21 1z"/>
<path d="M5708 9318 c5 -5 16 -8 23 -6 8 3 3 7 -10 11 -17 4 -21 3 -13 -5z"/>
<path d="M4475 9280 c-3 -6 1 -7 9 -4 18 7 21 14 7 14 -6 0 -13 -4 -16 -10z"/>
<path d="M4295 9191 c-3 -5 -1 -12 4 -15 5 -3 11 1 15 9 6 16 -9 21 -19 6z"/>
<path d="M5949 9183 c-7 -10 -10 -15 -5 -11 5 4 17 3 27 -3 13 -6 19 -6 19 1
0 5 -7 10 -16 10 -8 0 -12 5 -9 10 10 17 -2 11 -16 -7z"/>
<path d="M6046 9112 c-2 -4 4 -9 15 -9 11 -1 17 2 14 8 -7 11 -22 12 -29 1z"/>
<path d="M4169 9098 c0 -2 -2 -11 -4 -21 -3 -15 -1 -16 11 -6 7 6 11 15 8 20
-5 9 -13 12 -15 7z"/>
<path d="M4083 9014 c0 -23 1 -24 9 -10 7 12 7 21 0 28 -6 6 -9 0 -9 -18z"/>
<path d="M6152 9003 c33 -34 53 -47 25 -15 -10 10 -14 22 -10 26 5 4 1 6 -7 4
-8 -1 -14 2 -13 8 1 6 -5 11 -13 11 -9 0 -3 -12 18 -34z"/>
<path d="M4009 8947 c7 -7 14 -8 21 -1 6 6 2 10 -12 11 -16 2 -18 -1 -9 -10z"/>
<path d="M3920 8846 c0 -2 9 -6 20 -9 11 -3 18 -1 14 4 -5 9 -34 13 -34 5z"/>
<path d="M6347 8779 c-5 -19 -4 -20 12 -5 10 9 21 13 26 9 4 -5 5 -2 1 5 -11
19 -33 14 -39 -9z"/>
<path d="M3840 8691 c0 -6 5 -13 12 -17 6 -4 8 -3 4 4 -3 5 0 13 6 15 8 3 6 6
-4 6 -10 1 -18 -3 -18 -8z"/>
<path d="M6456 8564 c-4 -9 -4 -19 -1 -22 3 -3 5 0 5 7 0 7 4 9 10 6 6 -3 7 1
4 9 -8 20 -10 20 -18 0z"/>
<path d="M3300 8545 c0 -8 2 -15 4 -15 2 0 6 7 10 15 3 8 1 15 -4 15 -6 0 -10
-7 -10 -15z"/>
<path d="M3331 8542 c0 -11 2 -12 6 -4 2 6 9 10 13 7 5 -3 11 -2 14 3 2 4 -4
9 -15 9 -12 1 -19 -4 -18 -15z"/>
<path d="M3769 8558 c0 -2 -2 -11 -4 -20 -5 -25 11 -23 18 2 3 11 1 20 -4 20
-5 0 -9 -1 -10 -2z"/>
<path d="M3558 8533 c12 -2 30 -2 40 0 9 3 -1 5 -23 4 -22 0 -30 -2 -17 -4z"/>
<path d="M6464 8528 c-4 -5 -3 -12 0 -15 3 -4 6 -1 6 6 0 7 4 10 9 6 5 -3 12
-2 15 3 3 5 -2 9 -10 9 -8 0 -17 -4 -20 -9z"/>
<path d="M6683 8533 c15 -2 37 -2 50 0 12 2 0 4 -28 4 -27 0 -38 -2 -22 -4z"/>
<path d="M6903 8533 c9 -2 15 -9 12 -14 -3 -5 1 -6 9 -3 22 8 10 24 -17 23
-17 -1 -18 -2 -4 -6z"/>
<path d="M6995 8500 c-3 -6 1 -7 9 -4 18 7 21 14 7 14 -6 0 -13 -4 -16 -10z"/>
<path d="M3076 8463 c-3 -8 -10 -12 -15 -8 -5 3 -13 0 -17 -6 -4 -8 -3 -9 4
-5 7 4 12 2 12 -3 0 -6 5 -11 11 -11 5 0 7 5 3 12 -5 8 -2 9 9 5 10 -3 17 -2
17 4 0 6 4 7 10 4 5 -3 7 0 4 8 -6 18 -32 18 -38 0z"/>
<path d="M3120 8476 c0 -2 7 -7 16 -10 8 -3 12 -2 9 4 -6 10 -25 14 -25 6z"/>
<path d="M7294 8380 c0 -13 4 -16 10 -10 7 7 7 13 0 20 -6 6 -10 3 -10 -10z"/>
<path d="M7345 8341 c-3 -5 -2 -12 3 -15 5 -3 9 1 9 9 0 17 -3 19 -12 6z"/>
<path d="M2723 8222 c1 -14 5 -18 11 -12 7 7 6 14 -1 21 -9 9 -12 7 -10 -9z"/>
<path d="M7493 8225 c0 -8 7 -15 15 -15 7 0 12 5 10 12 -6 18 -25 21 -25 3z"/>
<path d="M2652 8139 c-7 -12 -11 -24 -8 -27 3 -3 6 0 6 7 0 7 4 10 8 7 4 -2 9
4 9 15 2 24 1 24 -15 -2z"/>
<path d="M7556 8151 c-3 -5 0 -14 8 -20 10 -9 15 -8 19 3 4 11 1 13 -10 9 -11
-4 -14 -2 -9 5 4 7 5 12 2 12 -3 0 -7 -4 -10 -9z"/>
<path d="M7730 7911 c0 -5 5 -13 10 -16 6 -3 10 -2 10 4 0 5 -4 13 -10 16 -5
3 -10 2 -10 -4z"/>
<path d="M2483 7885 c-3 -9 -3 -18 -1 -21 3 -3 8 4 11 16 6 23 -1 27 -10 5z"/>
<path d="M7805 7750 c3 -5 8 -10 11 -10 2 0 4 5 4 10 0 6 -5 10 -11 10 -5 0
-7 -4 -4 -10z"/>
<path d="M2407 7733 c-4 -6 -2 -15 5 -20 22 -13 37 -12 31 4 -4 11 -8 12 -13
2 -6 -8 -9 -6 -12 7 -2 13 -6 15 -11 7z"/>
<path d="M7801 7714 c0 -11 3 -14 6 -6 3 7 2 16 -1 19 -3 4 -6 -2 -5 -13z"/>
<path d="M2410 7675 c-9 -11 -10 -22 -3 -38 9 -20 11 -19 15 16 5 42 5 42 -12
22z"/>
<path d="M2400 7585 c0 -14 4 -25 9 -25 4 0 6 11 3 25 -2 14 -6 25 -8 25 -2 0
-4 -11 -4 -25z"/>
<path d="M2402 7465 c0 -16 2 -22 5 -12 2 9 2 23 0 30 -3 6 -5 -1 -5 -18z"/>
<path d="M2401 7174 c0 -11 3 -14 6 -6 3 7 2 16 -1 19 -3 4 -6 -2 -5 -13z"/>
<path d="M2404 7125 c1 -17 5 -36 9 -42 4 -6 1 -14 -5 -16 -10 -4 -10 -6 0 -6
7 -1 10 -6 6 -12 -4 -7 1 -10 11 -7 10 1 20 9 23 17 3 9 0 11 -8 6 -10 -6 -12
-2 -8 13 4 12 2 22 -2 22 -5 0 -13 12 -18 28 l-11 27 3 -30z"/>
<path d="M2437 6993 c-10 -9 -9 -23 1 -23 5 0 9 7 9 15 0 17 -1 18 -10 8z"/>
<path d="M7746 6903 c-6 -14 -5 -15 5 -6 7 7 10 15 7 18 -3 3 -9 -2 -12 -12z"/>
<path d="M2480 6850 c0 -11 2 -20 4 -20 2 0 6 9 9 20 3 11 1 20 -4 20 -5 0 -9
-9 -9 -20z"/>
<path d="M2513 6834 c-3 -8 -2 -19 3 -24 5 -5 9 1 9 16 0 28 -3 30 -12 8z"/>
<path d="M2567 6733 c3 -7 6 -13 8 -13 2 0 5 6 8 13 3 8 -1 14 -8 14 -7 0 -11
-6 -8 -14z"/>
<path d="M2640 6626 c0 -2 7 -7 16 -10 8 -3 12 -2 9 4 -6 10 -25 14 -25 6z"/>
<path d="M2754 6533 c2 -10 6 -17 10 -16 15 3 16 11 2 22 -12 10 -14 9 -12 -6z"/>
<path d="M2780 6488 c0 -4 4 -8 9 -8 6 0 12 4 15 8 3 5 -1 9 -9 9 -8 0 -15 -4
-15 -9z"/>
<path d="M7416 6492 c-3 -5 1 -9 9 -9 8 0 12 4 9 9 -3 4 -7 8 -9 8 -2 0 -6 -4
-9 -8z"/>
<path d="M7349 6439 l-24 -20 28 17 c15 9 27 18 27 20 0 8 -8 4 -31 -17z"/>
<path d="M2860 6440 c-11 -7 -11 -10 -2 -10 7 0 10 -4 7 -10 -4 -6 1 -7 11 -3
11 4 13 8 6 11 -7 2 -10 8 -6 13 7 11 3 11 -16 -1z"/>
<path d="M2903 6415 c0 -8 4 -12 9 -9 5 3 6 10 3 15 -9 13 -12 11 -12 -6z"/>
<path d="M2990 6355 c-7 -9 -11 -17 -9 -20 3 -2 10 5 17 15 14 24 10 26 -8 5z"/>
<path d="M3155 6291 c-11 -5 -23 -7 -27 -4 -15 8 -8 -5 9 -18 11 -10 14 -10 9
-1 -4 7 -1 12 9 12 10 0 13 -5 9 -12 -4 -7 -3 -9 1 -5 7 6 17 39 12 36 -1 0
-11 -4 -22 -8z"/>
<path d="M7088 6283 c6 -2 18 -2 25 0 6 3 1 5 -13 5 -14 0 -19 -2 -12 -5z"/>
<path d="M3215 6271 c-16 -6 -14 -9 15 -15 73 -16 110 -18 110 -6 0 7 -7 10
-16 6 -8 -3 -12 -2 -9 4 3 6 -1 10 -9 10 -8 0 -17 -4 -20 -9 -3 -5 -15 -7 -26
-4 -11 3 -17 9 -14 14 6 11 -4 11 -31 0z"/>
<path d="M6927 6264 c-15 -15 -6 -31 16 -29 12 1 22 3 22 4 0 2 8 4 18 6 27 5
34 15 11 15 -10 0 -28 3 -39 6 -11 3 -24 2 -28 -2z"/>
<path d="M3326 6215 c-3 -9 -6 -24 -5 -33 0 -9 5 -4 10 12 9 32 6 48 -5 21z"/>
<path d="M6924 5870 c0 -190 2 -267 3 -172 2 94 2 250 0 345 -1 94 -3 17 -3
-173z"/>
<path d="M3322 6105 c0 -16 2 -22 5 -12 2 9 2 23 0 30 -3 6 -5 -1 -5 -18z"/>
<path d="M3321 6024 c0 -11 3 -14 6 -6 3 7 2 16 -1 19 -3 4 -6 -2 -5 -13z"/>
<path d="M3322 5950 c0 -14 2 -19 5 -12 2 6 2 18 0 25 -3 6 -5 1 -5 -13z"/>
<path d="M3317 5870 c3 -11 7 -20 9 -20 2 0 4 9 4 20 0 11 -4 20 -9 20 -5 0
-7 -9 -4 -20z"/>
<path d="M3322 5800 c0 -19 2 -27 5 -17 2 9 2 25 0 35 -3 9 -5 1 -5 -18z"/>
<path d="M3320 5701 c0 -11 4 -22 9 -25 4 -3 6 6 3 19 -5 30 -12 33 -12 6z"/>
<path d="M3320 5624 c0 -10 5 -26 10 -34 8 -11 9 -7 4 15 -8 37 -14 45 -14 19z"/>
<path d="M3321 5544 c0 -11 3 -14 6 -6 3 7 2 16 -1 19 -3 4 -6 -2 -5 -13z"/>
<path d="M6941 5524 c0 -11 3 -14 6 -6 3 7 2 16 -1 19 -3 4 -6 -2 -5 -13z"/>
<path d="M6924 5225 c0 -165 2 -234 3 -153 2 81 2 216 0 300 -1 84 -3 18 -3
-147z"/>
<path d="M3321 5464 c0 -11 3 -14 6 -6 3 7 2 16 -1 19 -3 4 -6 -2 -5 -13z"/>
<path d="M3321 5224 c0 -11 3 -14 6 -6 3 7 2 16 -1 19 -3 4 -6 -2 -5 -13z"/>
<path d="M3331 4865 c-1 -12 -6 -26 -12 -32 -8 -8 -8 -13 0 -18 6 -3 11 -3 10
2 -1 4 1 16 5 25 4 10 6 23 3 30 -3 7 -6 4 -6 -7z"/>
<path d="M6923 4835 c0 -27 2 -38 4 -22 2 15 2 37 0 50 -2 12 -4 0 -4 -28z"/>
<path d="M3322 4750 c0 -14 2 -19 5 -12 2 6 2 18 0 25 -3 6 -5 1 -5 -13z"/>
<path d="M3371 4661 c-9 -6 -10 -11 -2 -15 6 -4 11 -2 11 4 0 6 5 8 12 4 7 -4
8 -3 4 4 -8 14 -7 14 -25 3z"/>
<path d="M4302 4633 c456 -2 1200 -2 1655 0 456 1 83 2 -827 2 -910 0 -1283
-1 -828 -2z"/>
<path d="M8061 3661 c-10 -6 -9 -10 5 -15 20 -8 25 -4 16 11 -4 7 -13 9 -21 4z"/>
<path d="M2160 3648 c0 -8 11 -14 28 -15 15 -1 20 1 12 4 -8 3 -21 10 -27 16
-9 6 -13 5 -13 -5z"/>
<path d="M8007 3634 c5 -13 44 -27 52 -19 2 3 -2 5 -10 5 -12 0 -12 2 0 9 9 6
4 10 -17 13 -21 3 -28 0 -25 -8z"/>
<path d="M1880 3631 c0 -10 19 -25 25 -20 1 2 -3 10 -11 17 -8 7 -14 8 -14 3z"/>
<path d="M8280 3625 c0 -8 4 -15 10 -15 5 0 7 7 4 15 -4 8 -8 15 -10 15 -2 0
-4 -7 -4 -15z"/>
<path d="M2027 3623 c18 -2 50 -2 70 0 21 2 7 4 -32 4 -38 0 -55 -2 -38 -4z"/>
<path d="M4658 3623 c6 -2 18 -2 25 0 6 3 1 5 -13 5 -14 0 -19 -2 -12 -5z"/>
<path d="M5865 3620 c28 -12 37 -12 30 0 -3 6 -16 10 -28 9 -21 0 -21 -1 -2
-9z"/>
<path d="M6140 3620 c-9 -6 -10 -10 -3 -10 6 0 15 5 18 10 8 12 4 12 -15 0z"/>
<path d="M1920 3600 c-464 -55 -841 -425 -925 -909 -19 -109 -19 -324 0 -437
70 -407 335 -720 717 -848 199 -67 464 -74 678 -18 64 16 145 44 180 62 88 44
218 130 255 168 17 17 34 32 40 32 5 0 4 -5 -3 -12 -15 -15 -16 -28 -2 -28 6
0 9 3 9 8 -1 4 0 10 1 15 4 12 7 26 9 37 0 6 6 10 12 10 5 0 8 -4 4 -9 -3 -5
0 -13 6 -17 7 -4 9 -3 6 3 -6 10 21 42 30 36 8 -7 23 -2 23 7 0 15 -21 12 -42
-7 -10 -9 -18 -12 -18 -6 0 11 50 60 55 53 2 -3 7 -1 12 4 5 5 3 6 -4 2 -20
-11 -16 0 30 71 154 241 216 548 172 848 -8 55 -21 123 -28 150 -86 309 -317
580 -597 701 -180 78 -408 109 -620 84z m304 -415 c91 -24 158 -60 228 -124
82 -76 129 -152 174 -287 34 -99 38 -121 42 -244 5 -155 -11 -263 -58 -391
-34 -94 -105 -205 -162 -254 -42 -35 -65 -46 -52 -22 4 7 3 9 -2 4 -5 -5 -9
-14 -9 -20 0 -16 -98 -63 -170 -82 -73 -18 -203 -19 -270 -1 -72 19 -147 54
-141 65 4 5 1 13 -5 17 -8 4 -9 3 -5 -4 4 -7 3 -12 -3 -12 -13 0 -141 119
-141 132 0 5 5 6 12 2 7 -4 8 -3 4 5 -4 6 -11 9 -16 6 -12 -7 -71 95 -99 171
-35 92 -51 195 -51 327 0 224 66 414 192 551 33 37 65 66 71 66 6 0 1 -10 -11
-23 -17 -18 -19 -24 -8 -24 8 0 13 4 11 8 -3 3 2 12 10 19 8 7 13 16 10 20
-12 20 110 84 190 100 68 13 198 11 259 -5z"/>
<path d="M2063 3183 c9 -2 17 -10 17 -16 0 -9 2 -9 8 -1 4 7 16 14 27 17 11 2
0 5 -25 5 -25 0 -37 -2 -27 -5z"/>
<path d="M1936 3155 c4 -8 11 -15 16 -15 6 0 5 6 -2 15 -7 8 -14 15 -16 15 -2
0 -1 -7 2 -15z"/>
<path d="M1903 3143 c-13 -2 -23 -8 -23 -13 0 -10 38 -1 46 11 3 5 4 8 2 8 -2
-1 -13 -4 -25 -6z"/>
<path d="M2240 3140 c0 -5 5 -10 10 -10 6 0 10 5 10 10 0 6 -4 10 -10 10 -5 0
-10 -4 -10 -10z"/>
<path d="M2275 3130 c3 -5 8 -10 11 -10 2 0 4 5 4 10 0 6 -5 10 -11 10 -5 0
-7 -4 -4 -10z"/>
<path d="M2370 3080 c-6 -11 -8 -20 -6 -20 3 0 10 9 16 20 6 11 8 20 6 20 -3
0 -10 -9 -16 -20z"/>
<path d="M2400 3061 c-9 -18 -8 -21 9 -21 26 0 34 15 17 30 -12 9 -17 7 -26
-9z"/>
<path d="M1591 2804 c0 -11 3 -14 6 -6 3 7 2 16 -1 19 -3 4 -6 -2 -5 -13z"/>
<path d="M2565 2809 c-4 -6 -4 -13 -1 -16 3 -4 6 -1 6 6 0 7 5 9 12 5 7 -4 8
-3 4 4 -9 15 -13 15 -21 1z"/>
<path d="M1585 2740 c-3 -5 -1 -10 4 -10 6 0 11 5 11 10 0 6 -2 10 -4 10 -3 0
-8 -4 -11 -10z"/>
<path d="M1530 2681 c0 -6 4 -13 10 -16 6 -3 7 1 4 9 -7 18 -14 21 -14 7z"/>
<path d="M1511 2544 c0 -11 3 -14 6 -6 3 7 2 16 -1 19 -3 4 -6 -2 -5 -13z"/>
<path d="M2640 2535 c0 -8 4 -15 10 -15 5 0 7 7 4 15 -4 8 -8 15 -10 15 -2 0
-4 -7 -4 -15z"/>
<path d="M2647 2435 c3 -22 7 -42 9 -44 8 -9 2 45 -6 64 -7 14 -8 8 -3 -20z"/>
<path d="M2641 2334 c0 -11 3 -14 6 -6 3 7 2 16 -1 19 -3 4 -6 -2 -5 -13z"/>
<path d="M2631 2284 c0 -11 3 -14 6 -6 3 7 2 16 -1 19 -3 4 -6 -2 -5 -13z"/>
<path d="M2566 2144 c-4 -9 -4 -19 -1 -22 2 -3 7 3 11 12 4 9 4 19 1 22 -2 3
-7 -3 -11 -12z"/>
<path d="M2480 1980 c0 -19 11 -26 23 -14 8 8 -3 34 -14 34 -5 0 -9 -9 -9 -20z"/>
<path d="M2435 1900 c-10 -11 -22 -17 -28 -13 -6 4 -7 1 -2 -6 5 -9 13 -7 31
10 13 12 24 24 24 26 0 7 -8 2 -25 -17z"/>
<path d="M1953 1785 c0 -8 4 -12 9 -9 5 3 6 10 3 15 -9 13 -12 11 -12 -6z"/>
<path d="M4558 3600 c-111 -20 -198 -57 -276 -119 -55 -44 -73 -52 -51 -23 11
14 10 14 -8 -2 -13 -10 -21 -22 -18 -26 2 -4 -18 -33 -46 -66 -27 -32 -66 -87
-85 -122 -20 -35 -38 -62 -40 -59 -8 8 -12 74 -13 225 l-1 152 -233 0 -233 0
1 -1070 0 -1070 253 0 252 0 0 623 c0 357 5 651 10 691 6 37 22 102 35 143 27
80 80 167 96 158 5 -3 6 0 3 8 -6 18 85 89 146 114 35 14 71 18 160 18 104 -1
120 -3 172 -28 98 -48 160 -137 195 -284 14 -59 17 -160 20 -755 l4 -688 249
0 249 0 4 683 c3 750 2 728 67 856 25 50 66 100 76 94 9 -6 37 -2 31 4 -4 3
-1 13 5 22 7 9 0 5 -15 -8 -15 -14 -27 -19 -27 -13 0 21 94 82 159 102 85 27
198 27 286 -1 82 -25 153 -86 190 -164 51 -109 55 -169 55 -901 l0 -674 246 0
245 0 -4 787 c-5 855 -5 864 -62 1005 -14 36 -40 87 -56 113 -32 50 -35 60
-17 49 7 -4 8 -3 4 5 -4 6 -11 9 -15 7 -4 -3 -25 13 -47 35 -21 21 -55 51 -76
65 -21 15 -35 31 -31 37 3 5 2 7 -4 4 -5 -3 -44 7 -85 23 -224 87 -488 74
-683 -34 -47 -26 -101 -70 -165 -135 -52 -52 -98 -95 -102 -93 -4 1 -5 -4 -3
-11 3 -6 -8 -34 -24 -60 l-28 -48 -37 76 c-25 50 -63 102 -110 153 -40 42 -72
84 -71 93 2 9 -3 16 -11 16 -10 0 -11 -4 -3 -14 8 -9 8 -13 1 -13 -6 0 -14 5
-18 11 -11 19 -164 86 -222 98 -74 15 -238 22 -294 11z"/>
<path d="M8045 3600 c-263 -28 -543 -189 -703 -405 -24 -33 -48 -60 -52 -60
-5 0 -12 -4 -17 -9 -5 -5 -3 -6 5 -2 18 11 15 3 -23 -67 -92 -167 -136 -353
-138 -572 -1 -275 53 -469 187 -674 31 -46 53 -89 49 -95 -3 -6 -3 -8 2 -4 4
4 45 -27 89 -70 194 -186 412 -278 682 -289 323 -13 607 95 809 308 108 115
179 232 218 367 l16 52 -217 0 -218 0 -18 -32 c-30 -53 -48 -69 -61 -58 -8 7
-12 5 -12 -5 0 -8 4 -12 9 -9 22 14 4 -15 -34 -53 -39 -40 -68 -58 -52 -31 4
7 3 8 -5 4 -6 -4 -9 -11 -6 -16 9 -14 -40 -41 -61 -34 -13 4 -15 3 -6 -3 18
-14 -52 -50 -144 -73 -85 -22 -209 -26 -294 -10 -223 42 -412 276 -453 563
l-6 37 790 0 789 0 0 131 c0 353 -93 615 -292 825 -206 217 -504 319 -833 284z
m264 -395 c92 -22 173 -69 236 -137 58 -63 64 -75 40 -84 -8 -4 -12 -10 -9
-16 3 -5 12 -1 19 8 11 16 15 13 39 -35 26 -50 65 -200 66 -248 l0 -23 -550 0
-550 0 0 28 c0 41 36 146 78 227 23 44 62 96 107 141 109 111 210 152 370 153
50 0 119 -6 154 -14z"/>
<path d="M8158 3203 c12 -2 32 -2 45 0 12 2 2 4 -23 4 -25 0 -35 -2 -22 -4z"/>
<path d="M8315 3181 c-3 -5 -2 -12 3 -15 5 -3 9 1 9 9 0 17 -3 19 -12 6z"/>
<path d="M7962 3173 c-6 -2 -10 -9 -6 -14 8 -14 21 -11 21 6 0 8 -1 15 -1 14
-1 0 -7 -3 -14 -6z"/>
<path d="M7879 3129 l-24 -20 28 17 c15 9 27 18 27 20 0 8 -8 4 -31 -17z"/>
<path d="M8330 3142 c0 -13 38 -23 46 -11 3 5 1 9 -5 9 -5 0 -16 3 -25 6 -9 3
-16 2 -16 -4z"/>
<path d="M8440 3131 c0 -5 7 -12 16 -15 14 -5 15 -4 4 9 -14 17 -20 19 -20 6z"/>
<path d="M8484 3097 c1 -9 5 -20 9 -23 4 -4 1 -14 -5 -23 -9 -11 -6 -10 9 2
20 18 22 18 31 0 6 -10 13 -15 16 -12 3 3 -10 20 -28 38 -22 22 -34 28 -32 18z"/>
<path d="M8650 2750 c13 -24 22 -27 13 -3 -5 12 -3 14 7 8 9 -5 11 -4 6 3 -4
7 -14 12 -22 12 -12 0 -12 -4 -4 -20z"/>
<path d="M7880 2716 c0 -2 7 -7 16 -10 8 -3 12 -2 9 4 -6 10 -25 14 -25 6z"/>
<path d="M8300 2710 c0 -5 5 -10 11 -10 5 0 7 5 4 10 -3 6 -8 10 -11 10 -2 0
-4 -4 -4 -10z"/>
<path d="M8530 2716 c0 -2 7 -6 15 -10 8 -3 15 -1 15 4 0 6 -7 10 -15 10 -8 0
-15 -2 -15 -4z"/>
<path d="M7848 2703 c7 -3 16 -2 19 1 4 3 -2 6 -13 5 -11 0 -14 -3 -6 -6z"/>
<path d="M8649 2701 c11 -7 11 -9 0 -14 -8 -3 -3 -6 10 -6 20 -1 21 1 11 14
-7 8 -18 15 -24 15 -6 0 -5 -4 3 -9z"/>
<path d="M7628 2683 c12 -2 30 -2 40 0 9 3 -1 5 -23 4 -22 0 -30 -2 -17 -4z"/>
<path d="M3540 3589 c0 -5 5 -7 10 -4 6 3 10 8 10 11 0 2 -4 4 -10 4 -5 0 -10
-5 -10 -11z"/>
<path d="M3745 3590 c-3 -5 -1 -10 4 -10 6 0 11 5 11 10 0 6 -2 10 -4 10 -3 0
-8 -4 -11 -10z"/>
<path d="M3900 3589 c0 -5 5 -7 10 -4 6 3 10 8 10 11 0 2 -4 4 -10 4 -5 0 -10
-5 -10 -11z"/>
<path d="M4004 3593 c10 -11 56 -11 50 -1 -3 4 -17 8 -31 8 -15 0 -23 -3 -19
-7z"/>
<path d="M4385 3590 c-3 -6 1 -7 9 -4 18 7 21 14 7 14 -6 0 -13 -4 -16 -10z"/>
<path d="M5020 3589 c0 -5 5 -7 10 -4 6 3 10 8 10 11 0 2 -4 4 -10 4 -5 0 -10
-5 -10 -11z"/>
<path d="M5680 3596 c0 -7 40 -14 44 -7 3 4 -6 8 -20 9 -13 1 -24 0 -24 -2z"/>
<path d="M6286 3591 c-4 -5 3 -7 14 -4 23 6 26 13 6 13 -8 0 -17 -4 -20 -9z"/>
<path d="M7850 3596 c0 -2 9 -6 20 -9 11 -3 18 -1 14 4 -5 9 -34 13 -34 5z"/>
<path d="M8510 3590 c0 -5 5 -10 11 -10 5 0 7 5 4 10 -3 6 -8 10 -11 10 -2 0
-4 -4 -4 -10z"/>
<path d="M1601 3574 c0 -11 3 -14 6 -6 3 7 2 16 -1 19 -3 4 -6 -2 -5 -13z"/>
<path d="M4326 3572 c-3 -5 1 -9 9 -9 8 0 12 4 9 9 -3 4 -7 8 -9 8 -2 0 -6 -4
-9 -8z"/>
<path d="M5000 3568 c0 -9 5 -20 10 -23 13 -8 13 5 0 25 -8 13 -10 13 -10 -2z"/>
<path d="M8540 3576 c0 -2 7 -7 16 -10 8 -3 12 -2 9 4 -6 10 -25 14 -25 6z"/>
<path d="M3522 2635 c0 -547 3 -935 8 -935 6 0 9 388 9 935 -1 514 -4 935 -8
935 -5 0 -8 -421 -9 -935z"/>
<path d="M2614 3513 c10 -11 37 -12 30 -2 -3 5 -12 9 -21 9 -9 0 -13 -3 -9 -7z"/>
<path d="M6465 3501 c-3 -5 -2 -12 3 -15 5 -3 9 1 9 9 0 17 -3 19 -12 6z"/>
<path d="M6516 3462 c-3 -5 1 -9 9 -9 8 0 12 4 9 9 -3 4 -7 8 -9 8 -2 0 -6 -4
-9 -8z"/>
<path d="M4052 3440 c0 -14 2 -19 5 -12 2 6 2 18 0 25 -3 6 -5 1 -5 -13z"/>
<path d="M1403 3433 c-17 -6 -17 -20 0 -20 8 0 14 6 14 14 0 7 -1 13 -1 12 -1
0 -7 -3 -13 -6z"/>
<path d="M7525 3430 c-3 -6 1 -7 9 -4 18 7 21 14 7 14 -6 0 -13 -4 -16 -10z"/>
<path d="M5464 3398 l-29 -33 33 29 c17 17 32 31 32 33 0 8 -8 1 -36 -29z"/>
<path d="M2760 3406 c0 -2 6 -9 13 -15 10 -8 14 -7 14 4 0 8 -6 15 -14 15 -7
0 -13 -2 -13 -4z"/>
<path d="M4144 3378 l-19 -23 23 19 c12 11 22 21 22 23 0 8 -8 2 -26 -19z"/>
<path d="M4052 3360 c0 -14 2 -19 5 -12 2 6 2 18 0 25 -3 6 -5 1 -5 -13z"/>
<path d="M1298 3346 c-22 -16 -23 -23 -4 -23 8 0 17 9 19 19 3 10 4 18 4 18
-1 0 -10 -7 -19 -14z"/>
<path d="M5236 3348 c3 -5 10 -6 15 -3 13 9 11 12 -6 12 -8 0 -12 -4 -9 -9z"/>
<path d="M7450 3345 c-7 -8 -16 -13 -19 -10 -4 2 -8 -3 -8 -11 0 -11 6 -9 24
8 13 12 23 23 23 25 0 7 -8 2 -20 -12z"/>
<path d="M8894 3336 c3 -24 22 -40 31 -27 3 7 1 10 -6 9 -7 -2 -13 2 -14 9 0
6 -3 14 -7 18 -3 4 -5 0 -4 -9z"/>
<path d="M2857 3318 c19 -21 31 -25 14 -5 -6 8 -9 16 -6 19 3 2 -2 5 -10 5
-13 0 -13 -3 2 -19z"/>
<path d="M7384 3278 l-19 -23 23 19 c12 11 22 21 22 23 0 8 -8 2 -26 -19z"/>
<path d="M1204 3265 c-3 -8 -4 -20 -2 -27 3 -7 7 -1 10 15 6 29 1 36 -8 12z"/>
<path d="M4048 3273 c6 -2 18 -2 25 0 6 3 1 5 -13 5 -14 0 -19 -2 -12 -5z"/>
<path d="M5325 3271 c-11 -5 -24 -6 -28 -4 -5 3 -3 -5 4 -18 7 -13 12 -30 10
-38 -2 -11 0 -11 12 0 8 7 14 20 13 29 -1 8 4 14 11 13 7 -2 10 4 7 12 -4 8
-7 15 -8 14 0 0 -10 -4 -21 -8z"/>
<path d="M1223 3243 c0 -9 4 -10 14 -2 7 6 13 12 13 14 0 1 -6 2 -13 2 -8 0
-14 -6 -14 -14z"/>
<path d="M4040 3235 c0 -14 2 -25 4 -25 2 0 6 11 8 25 3 14 1 25 -3 25 -5 0
-9 -11 -9 -25z"/>
<path d="M7326 3218 c3 -5 10 -6 15 -3 13 9 11 12 -6 12 -8 0 -12 -4 -9 -9z"/>
<path d="M7280 3171 c0 -6 4 -13 10 -16 6 -3 7 1 4 9 -7 18 -14 21 -14 7z"/>
<path d="M4473 3163 c15 -2 39 -2 55 0 15 2 2 4 -28 4 -30 0 -43 -2 -27 -4z"/>
<path d="M5813 3163 c15 -2 39 -2 55 0 15 2 2 4 -28 4 -30 0 -43 -2 -27 -4z"/>
<path d="M5945 3151 c-6 -11 11 -24 37 -28 11 -2 15 2 12 11 -3 8 -13 12 -26
8 -14 -3 -19 -1 -14 6 4 7 5 12 2 12 -3 0 -7 -4 -11 -9z"/>
<path d="M4365 3140 c3 -5 8 -10 11 -10 2 0 4 5 4 10 0 6 -5 10 -11 10 -5 0
-7 -4 -4 -10z"/>
<path d="M4507 3133 c3 -7 9 -10 14 -7 14 8 11 21 -5 21 -8 0 -12 -6 -9 -14z"/>
<path d="M4580 3139 c0 -5 9 -9 20 -9 11 0 20 2 20 4 0 2 -9 6 -20 9 -11 3
-20 1 -20 -4z"/>
<path d="M3015 3131 c-3 -5 -1 -12 5 -16 5 -3 10 1 10 9 0 18 -6 21 -15 7z"/>
<path d="M4410 3136 c0 -2 9 -6 20 -9 11 -3 18 -1 14 4 -5 9 -34 13 -34 5z"/>
<path d="M7240 3116 c0 -2 7 -7 16 -10 8 -3 12 -2 9 4 -6 10 -25 14 -25 6z"/>
<path d="M9067 3103 c3 -7 8 -13 12 -13 4 0 8 6 8 13 0 8 -6 14 -13 14 -7 0
-10 -6 -7 -14z"/>
<path d="M4723 3097 c0 -8 6 -14 14 -14 9 0 10 4 2 14 -6 7 -12 13 -14 13 -1
0 -2 -6 -2 -13z"/>
<path d="M5605 3099 c-4 -6 -5 -12 -2 -15 2 -3 7 2 10 11 7 17 1 20 -8 4z"/>
<path d="M6083 3059 c-2 -20 21 -26 32 -9 4 6 -1 7 -11 3 -11 -4 -15 -3 -10 5
3 6 3 13 -2 16 -4 2 -9 -4 -9 -15z"/>
<path d="M9096 3033 c10 -15 19 -30 21 -32 2 -2 3 4 3 15 0 11 -9 25 -20 32
-21 13 -21 12 -4 -15z"/>
<path d="M4176 3001 c-3 -5 1 -14 9 -21 12 -10 16 -9 21 4 4 9 4 20 0 23 -3 4
-6 -1 -6 -11 0 -9 -5 -14 -10 -11 -6 4 -8 11 -5 16 4 5 4 9 1 9 -3 0 -7 -4
-10 -9z"/>
<path d="M5497 2983 c-12 -11 -8 -23 8 -23 8 0 15 7 15 15 0 16 -12 20 -23 8z"/>
<path d="M4156 2963 c-6 -14 -5 -15 5 -6 7 7 10 15 7 18 -3 3 -9 -2 -12 -12z"/>
<path d="M4804 2944 c0 -16 6 -24 18 -24 12 0 16 -5 12 -17 -5 -15 -4 -15 4
-3 7 9 7 19 2 26 -6 6 -8 13 -5 15 2 3 -4 10 -13 16 -15 9 -18 7 -18 -13z"/>
<path d="M7155 2939 c-4 -6 -13 -8 -21 -5 -8 3 -14 1 -14 -4 0 -6 7 -10 15
-10 7 0 19 -8 24 -17 6 -10 11 -13 11 -6 0 6 -5 15 -10 18 -8 5 -7 11 1 21 6
8 9 14 6 14 -3 0 -9 -5 -12 -11z"/>
<path d="M5466 2908 c3 -5 10 -6 15 -3 13 9 11 12 -6 12 -8 0 -12 -4 -9 -9z"/>
<path d="M4844 2866 c-3 -8 -4 -27 -2 -43 3 -23 5 -20 9 15 5 43 2 53 -7 28z"/>
<path d="M7127 2853 c-4 -3 -7 -13 -7 -22 1 -13 3 -13 11 2 11 19 8 33 -4 20z"/>
<path d="M4800 2834 c0 -8 5 -12 10 -9 6 4 8 11 5 16 -9 14 -15 11 -15 -7z"/>
<path d="M6195 2820 c-3 -5 -1 -10 4 -10 6 0 11 5 11 10 0 6 -2 10 -4 10 -3 0
-8 -4 -11 -10z"/>
<path d="M5431 2804 c0 -11 3 -14 6 -6 3 7 2 16 -1 19 -3 4 -6 -2 -5 -13z"/>
<path d="M9171 2804 c0 -11 3 -14 6 -6 3 7 2 16 -1 19 -3 4 -6 -2 -5 -13z"/>
<path d="M970 2780 c0 -11 2 -20 4 -20 2 0 6 9 9 20 3 11 1 20 -4 20 -5 0 -9
-9 -9 -20z"/>
<path d="M4871 2754 c0 -11 3 -14 6 -6 3 7 2 16 -1 19 -3 4 -6 -2 -5 -13z"/>
<path d="M6191 2750 c-1 -9 4 -21 11 -28 9 -9 9 -18 0 -36 -6 -14 -7 -28 -3
-31 12 -7 25 66 13 74 -5 3 -12 13 -15 21 -5 13 -6 13 -6 0z"/>
<path d="M3170 2709 c0 -5 5 -7 10 -4 6 3 10 8 10 11 0 2 -4 4 -10 4 -5 0 -10
-5 -10 -11z"/>
<path d="M960 2698 c0 -9 5 -20 10 -23 13 -8 13 5 0 25 -8 13 -10 13 -10 -2z"/>
<path d="M5412 2042 c-2 -525 0 -605 13 -618 18 -19 20 -2 3 27 -10 17 -10 23
0 26 6 3 12 9 12 14 0 6 -4 7 -10 4 -7 -4 -10 52 -10 160 0 91 4 164 8 161 5
-3 9 1 9 9 0 8 -4 12 -9 9 -4 -3 -8 9 -8 26 0 17 4 29 9 25 6 -3 9 13 9 37 -1
26 -4 35 -7 23 -3 -11 -8 142 -11 340 -5 328 -6 307 -8 -243z"/>
<path d="M7101 2624 c0 -11 3 -14 6 -6 3 7 2 16 -1 19 -3 4 -6 -2 -5 -13z"/>
<path d="M4072 2600 c0 -19 2 -27 5 -17 2 9 2 25 0 35 -3 9 -5 1 -5 -18z"/>
<path d="M7082 2600 c0 -19 2 -27 5 -17 2 9 2 25 0 35 -3 9 -5 1 -5 -18z"/>
<path d="M961 2594 c0 -11 3 -14 6 -6 3 7 2 16 -1 19 -3 4 -6 -2 -5 -13z"/>
<path d="M6197 2589 c4 -13 8 -18 11 -10 2 7 -1 18 -6 23 -8 8 -9 4 -5 -13z"/>
<path d="M9182 2570 c0 -14 2 -19 5 -12 2 6 2 18 0 25 -3 6 -5 1 -5 -13z"/>
<path d="M4073 2525 c0 -22 2 -30 4 -17 2 12 2 30 0 40 -3 9 -5 -1 -4 -23z"/>
<path d="M6197 2533 c-2 -5 -1 -19 4 -33 7 -23 7 -23 8 8 1 31 -3 40 -12 25z"/>
<path d="M9182 2515 c0 -16 2 -22 5 -12 2 9 2 23 0 30 -3 6 -5 -1 -5 -18z"/>
<path d="M7082 2510 c0 -14 2 -19 5 -12 2 6 2 18 0 25 -3 6 -5 1 -5 -13z"/>
<path d="M3191 2504 c0 -11 3 -14 6 -6 3 7 2 16 -1 19 -3 4 -6 -2 -5 -13z"/>
<path d="M3192 2460 c0 -14 2 -19 5 -12 2 6 2 18 0 25 -3 6 -5 1 -5 -13z"/>
<path d="M4071 2464 c0 -11 3 -14 6 -6 3 7 2 16 -1 19 -3 4 -6 -2 -5 -13z"/>
<path d="M9182 2460 c0 -14 2 -19 5 -12 2 6 2 18 0 25 -3 6 -5 1 -5 -13z"/>
<path d="M7084 2376 c1 -38 5 -61 14 -64 6 -2 12 1 12 8 0 6 -4 9 -10 5 -5 -3
-11 19 -13 52 l-3 58 0 -59z"/>
<path d="M6195 2420 c3 -5 8 -10 11 -10 2 0 4 5 4 10 0 6 -5 10 -11 10 -5 0
-7 -4 -4 -10z"/>
<path d="M4071 2384 c0 -11 3 -14 6 -6 3 7 2 16 -1 19 -3 4 -6 -2 -5 -13z"/>
<path d="M9185 2391 c-3 -5 -1 -12 5 -16 5 -3 10 1 10 9 0 18 -6 21 -15 7z"/>
<path d="M6201 2354 c0 -11 3 -14 6 -6 3 7 2 16 -1 19 -3 4 -6 -2 -5 -13z"/>
<path d="M9166 2345 c-11 -8 -16 -18 -12 -22 3 -4 16 3 29 15 24 25 12 29 -17
7z"/>
<path d="M9065 2330 c-4 -6 6 -10 22 -10 22 0 25 2 13 10 -19 12 -27 12 -35 0z"/>
<path d="M7626 2321 c-3 -4 6 -6 19 -3 14 2 25 6 25 8 0 8 -39 4 -44 -5z"/>
<path d="M7718 2323 c7 -3 16 -2 19 1 4 3 -2 6 -13 5 -11 0 -14 -3 -6 -6z"/>
<path d="M7808 2323 c7 -3 16 -2 19 1 4 3 -2 6 -13 5 -11 0 -14 -3 -6 -6z"/>
<path d="M7848 2323 c7 -3 16 -2 19 1 4 3 -2 6 -13 5 -11 0 -14 -3 -6 -6z"/>
<path d="M7888 2323 c7 -3 16 -2 19 1 4 3 -2 6 -13 5 -11 0 -14 -3 -6 -6z"/>
<path d="M7968 2323 c7 -3 16 -2 19 1 4 3 -2 6 -13 5 -11 0 -14 -3 -6 -6z"/>
<path d="M8023 2323 c15 -2 37 -2 50 0 12 2 0 4 -28 4 -27 0 -38 -2 -22 -4z"/>
<path d="M8118 2323 c12 -2 30 -2 40 0 9 3 -1 5 -23 4 -22 0 -30 -2 -17 -4z"/>
<path d="M8208 2323 c7 -3 16 -2 19 1 4 3 -2 6 -13 5 -11 0 -14 -3 -6 -6z"/>
<path d="M8258 2323 c12 -2 32 -2 45 0 12 2 2 4 -23 4 -25 0 -35 -2 -22 -4z"/>
<path d="M8353 2323 c9 -2 23 -2 30 0 6 3 -1 5 -18 5 -16 0 -22 -2 -12 -5z"/>
<path d="M8423 2323 c15 -2 37 -2 50 0 12 2 0 4 -28 4 -27 0 -38 -2 -22 -4z"/>
<path d="M8528 2323 c17 -2 47 -2 65 0 17 2 3 4 -33 4 -36 0 -50 -2 -32 -4z"/>
<path d="M8668 2323 c6 -2 18 -2 25 0 6 3 1 5 -13 5 -14 0 -19 -2 -12 -5z"/>
<path d="M8728 2323 c7 -3 16 -2 19 1 4 3 -2 6 -13 5 -11 0 -14 -3 -6 -6z"/>
<path d="M8813 2323 c32 -2 81 -2 110 0 29 2 3 3 -58 3 -60 0 -84 -1 -52 -3z"/>
<path d="M8998 2323 c12 -2 30 -2 40 0 9 3 -1 5 -23 4 -22 0 -30 -2 -17 -4z"/>
<path d="M4074 2235 c0 -49 1 -71 3 -48 2 23 2 64 0 90 -2 26 -3 8 -3 -42z"/>
<path d="M6202 2280 c0 -14 2 -19 5 -12 2 6 2 18 0 25 -3 6 -5 1 -5 -13z"/>
<path d="M7092 2270 c0 -14 2 -19 5 -12 2 6 2 18 0 25 -3 6 -5 1 -5 -13z"/>
<path d="M960 2250 c0 -11 2 -20 4 -20 2 0 6 9 9 20 3 11 1 20 -4 20 -5 0 -9
-9 -9 -20z"/>
<path d="M3170 2241 c0 -6 4 -13 10 -16 6 -3 7 1 4 9 -7 18 -14 21 -14 7z"/>
<path d="M7667 2151 c-4 -17 -3 -21 5 -13 5 5 8 16 6 23 -3 8 -7 3 -11 -10z"/>
<path d="M976 2128 c0 -18 7 -34 14 -36 9 -3 11 3 6 24 -11 42 -21 48 -20 12z"/>
<path d="M6202 2110 c0 -14 2 -19 5 -12 2 6 2 18 0 25 -3 6 -5 1 -5 -13z"/>
<path d="M8903 2118 c1 -7 -22 -12 -66 -15 -43 -1 -66 1 -62 7 8 14 2 13 -31
-5 -26 -14 -8 -15 201 -13 140 2 180 4 102 5 -70 2 -125 7 -122 12 2 5 -2 11
-10 15 -8 3 -14 0 -12 -6z"/>
<path d="M3161 2104 c0 -11 3 -14 6 -6 3 7 2 16 -1 19 -3 4 -6 -2 -5 -13z"/>
<path d="M4073 2045 c0 -22 2 -30 4 -17 2 12 2 30 0 40 -3 9 -5 -1 -4 -23z"/>
<path d="M7124 2068 c-4 -7 -3 -8 4 -4 7 4 12 1 12 -8 0 -9 5 -16 10 -16 7 0
7 6 0 20 -12 23 -16 24 -26 8z"/>
<path d="M6200 2030 c0 -11 2 -20 4 -20 2 0 6 9 9 20 3 11 1 20 -4 20 -5 0 -9
-9 -9 -20z"/>
<path d="M7161 2014 c0 -11 3 -14 6 -6 3 7 2 16 -1 19 -3 4 -6 -2 -5 -13z"/>
<path d="M4074 1905 c0 -55 1 -76 3 -47 2 29 2 74 0 100 -2 26 -3 2 -3 -53z"/>
<path d="M5431 1984 c0 -11 3 -14 6 -6 3 7 2 16 -1 19 -3 4 -6 -2 -5 -13z"/>
<path d="M3096 1967 c3 -10 9 -15 12 -12 3 3 0 11 -7 18 -10 9 -11 8 -5 -6z"/>
<path d="M3090 1931 c0 -6 4 -13 10 -16 6 -3 7 1 4 9 -7 18 -14 21 -14 7z"/>
<path d="M7806 1908 c3 -5 10 -6 15 -3 13 9 11 12 -6 12 -8 0 -12 -4 -9 -9z"/>
<path d="M7835 1880 c4 -6 11 -8 16 -5 14 9 11 15 -7 15 -8 0 -12 -5 -9 -10z"/>
<path d="M7876 1862 c-3 -5 1 -9 9 -9 8 0 12 4 9 9 -3 4 -7 8 -9 8 -2 0 -6 -4
-9 -8z"/>
<path d="M7236 1848 c3 -5 10 -6 15 -3 13 9 11 12 -6 12 -8 0 -12 -4 -9 -9z"/>
<path d="M8290 1790 c-9 -6 -10 -10 -3 -10 6 0 15 5 18 10 8 12 4 12 -15 0z"/>
<path d="M8248 1783 c7 -3 16 -2 19 1 4 3 -2 6 -13 5 -11 0 -14 -3 -6 -6z"/>
<path d="M8118 1763 c7 -3 16 -2 19 1 4 3 -2 6 -13 5 -11 0 -14 -3 -6 -6z"/>
<path d="M4074 1610 c0 -85 2 -120 3 -77 2 42 2 112 0 155 -1 42 -3 7 -3 -78z"/>
<path d="M6212 1713 c-1 -28 -5 -60 -8 -70 -5 -14 -4 -15 5 -7 8 7 11 33 8 70
l-3 59 -2 -52z"/>
<path d="M5432 1720 c0 -19 2 -27 5 -17 2 9 2 25 0 35 -3 9 -5 1 -5 -18z"/>
<path d="M1204 1703 c2 -9 8 -19 15 -21 10 -3 10 0 2 17 -14 25 -20 27 -17 4z"/>
<path d="M3528 1683 c-5 -29 -1 -260 5 -256 8 5 9 263 1 263 -2 0 -5 -3 -6 -7z"/>
<path d="M5433 1645 c0 -22 2 -30 4 -17 2 12 2 30 0 40 -3 9 -5 -1 -4 -23z"/>
<path d="M7394 1654 c2 -11 8 -20 14 -20 25 -3 27 -5 12 -14 -9 -6 -10 -10 -3
-10 23 0 22 17 -2 40 -21 20 -23 20 -21 4z"/>
<path d="M1281 1624 c-1 -11 5 -21 12 -21 8 0 14 6 14 13 0 7 -4 11 -8 8 -4
-2 -10 2 -12 8 -3 7 -6 4 -6 -8z"/>
<path d="M6212 1600 c0 -14 2 -19 5 -12 2 6 2 18 0 25 -3 6 -5 1 -5 -13z"/>
<path d="M8905 1610 c-3 -5 -1 -10 4 -10 6 0 11 5 11 10 0 6 -2 10 -4 10 -3 0
-8 -4 -11 -10z"/>
<path d="M7455 1580 c3 -5 8 -10 11 -10 2 0 4 5 4 10 0 6 -5 10 -11 10 -5 0
-7 -4 -4 -10z"/>
<path d="M2775 1552 c3 -3 -3 -11 -13 -18 -16 -12 -15 -13 5 -11 12 0 19 5 17
9 -3 4 0 8 5 8 6 0 11 4 11 8 0 5 -7 9 -15 9 -8 0 -13 -3 -10 -5z"/>
<path d="M1380 1538 c0 -4 4 -8 9 -8 6 0 12 4 15 8 3 5 -1 9 -9 9 -8 0 -15 -4
-15 -9z"/>
<path d="M8845 1530 c-8 -13 5 -13 25 0 13 8 13 10 -2 10 -9 0 -20 -4 -23 -10z"/>
<path d="M6208 1497 c-3 -19 -2 -25 4 -19 6 6 8 18 6 28 -3 14 -5 12 -10 -9z"/>
<path d="M1468 1483 c6 -2 12 -11 12 -19 0 -8 8 -14 18 -13 10 0 12 3 5 6 -7
2 -13 11 -13 19 0 8 -8 14 -17 13 -11 0 -13 -3 -5 -6z"/>
<path d="M8743 1475 c0 -8 4 -15 9 -15 4 0 8 4 8 9 0 6 -4 12 -8 15 -5 3 -9
-1 -9 -9z"/>
<path d="M1446 1462 c-3 -5 1 -9 9 -9 8 0 12 4 9 9 -3 4 -7 8 -9 8 -2 0 -6 -4
-9 -8z"/>
<path d="M2707 1463 c-4 -3 -7 -11 -7 -17 0 -6 5 -5 12 2 6 6 9 14 7 17 -3 3
-9 2 -12 -2z"/>
<path d="M7600 1452 c0 -12 3 -13 12 -4 9 9 15 9 26 -1 12 -10 14 -9 10 3 -6
20 -48 22 -48 2z"/>
<path d="M6204 1430 c0 -11 6 -22 12 -24 7 -3 10 3 7 15 -7 26 -19 32 -19 9z"/>
<path d="M1600 1410 c0 -5 5 -10 11 -10 5 0 7 5 4 10 -3 6 -8 10 -11 10 -2 0
-4 -4 -4 -10z"/>
<path d="M8600 1411 c0 -6 4 -13 10 -16 6 -3 7 1 4 9 -7 18 -14 21 -14 7z"/>
<path d="M3673 1403 c76 -2 198 -2 270 0 73 1 11 3 -138 3 -148 0 -208 -2
-132 -3z"/>
<path d="M4942 1405 c3 -3 86 -6 184 -6 119 1 174 -3 164 -9 -9 -6 -10 -10 -3
-10 6 0 14 4 17 8 3 5 26 9 53 11 26 1 49 4 52 7 2 2 -103 4 -234 4 -131 0
-236 -2 -233 -5z"/>
<path d="M6424 1403 c131 -3 194 -7 205 -16 11 -9 13 -9 8 0 -5 9 8 13 45 16
29 2 -59 3 -197 3 -203 0 -214 -1 -61 -3z"/>
<path d="M7755 1390 c-7 -11 40 -29 53 -21 6 3 8 11 4 16 -8 12 -51 15 -57 5z"/>
<path d="M1630 1386 c0 -2 7 -7 16 -10 8 -3 12 -2 9 4 -6 10 -25 14 -25 6z"/>
<path d="M1706 1375 c-3 -9 0 -15 9 -15 8 0 15 7 15 15 0 8 -4 15 -9 15 -5 0
-11 -7 -15 -15z"/>
<path d="M3826 1381 c-4 -5 3 -7 14 -4 23 6 26 13 6 13 -8 0 -17 -4 -20 -9z"/>
<path d="M5036 1375 c5 -11 10 -12 18 -5 9 6 17 6 26 -3 12 -10 12 -9 1 6 -17
22 -53 23 -45 2z"/>
<path d="M5208 1383 c7 -3 16 -2 19 1 4 3 -2 6 -13 5 -11 0 -14 -3 -6 -6z"/>
<path d="M6408 1383 c6 -2 18 -2 25 0 6 3 1 5 -13 5 -14 0 -19 -2 -12 -5z"/>
<path d="M8516 1374 c-3 -8 1 -14 9 -14 20 0 28 17 11 23 -8 3 -17 -1 -20 -9z"/>
<path d="M8590 1376 c0 -2 7 -6 15 -10 8 -3 15 -1 15 4 0 6 -7 10 -15 10 -8 0
-15 -2 -15 -4z"/>
<path d="M7998 1344 c-10 -9 4 -45 15 -41 18 6 20 27 2 27 -9 0 -13 5 -10 10
7 11 2 14 -7 4z"/>
<path d="M2083 1315 c0 -8 4 -12 9 -9 5 3 6 10 3 15 -9 13 -12 11 -12 -6z"/>
<path d="M8160 1320 c0 -5 5 -10 11 -10 5 0 7 5 4 10 -3 6 -8 10 -11 10 -2 0
-4 -4 -4 -10z"/>
<path d="M8328 1323 c7 -3 16 -2 19 1 4 3 -2 6 -13 5 -11 0 -14 -3 -6 -6z"/>
<path d="M8360 1320 c0 -5 5 -10 11 -10 5 0 7 5 4 10 -3 6 -8 10 -11 10 -2 0
-4 -4 -4 -10z"/>
<path d="M8234 1311 c5 -8 56 -3 56 5 0 2 -14 4 -31 4 -16 0 -28 -4 -25 -9z"/>
</g>
</svg>
