<?xml version="1.0" standalone="no"?>
<!DOCTYPE svg PUBLIC "-//W3C//DTD SVG 20010904//EN"
 "http://www.w3.org/TR/2001/REC-SVG-20010904/DTD/svg10.dtd">
<svg version="1.0" xmlns="http://www.w3.org/2000/svg"
 width="1024.000000pt" height="1024.000000pt" viewBox="0 0 1024.000000 1024.000000"
 preserveAspectRatio="xMidYMid meet">

<g transform="translate(0.000000,1024.000000) scale(0.100000,-0.100000)"
fill="#000000" stroke="none">
<path d="M5043 9413 c48 -2 125 -2 170 0 45 1 6 3 -88 3 -93 0 -130 -2 -82 -3z"/>
<path d="M4855 9400 c-27 -7 -27 -8 -5 -8 14 0 39 4 55 8 27 7 27 8 5 8 -14 0
-38 -4 -55 -8z"/>
<path d="M5335 9399 c51 -10 92 -10 50 1 -16 4 -43 8 -60 8 -25 0 -24 -2 10
-9z"/>
<path d="M4788 9383 c6 -2 18 -2 25 0 6 3 1 5 -13 5 -14 0 -19 -2 -12 -5z"/>
<path d="M5428 9383 c7 -3 16 -2 19 1 4 3 -2 6 -13 5 -11 0 -14 -3 -6 -6z"/>
<path d="M4630 9336 c-162 -63 -366 -180 -416 -238 -11 -12 8 -2 41 23 124 92
228 148 390 210 55 21 93 38 85 38 -8 0 -53 -15 -100 -33z"/>
<path d="M5515 9360 c11 -5 27 -9 35 -9 9 0 8 4 -5 9 -11 5 -27 9 -35 9 -9 0
-8 -4 5 -9z"/>
<path d="M5610 9332 c8 -5 26 -13 40 -16 17 -5 20 -4 10 2 -8 5 -26 13 -40 16
-17 5 -20 4 -10 -2z"/>
<path d="M5681 9306 c10 -9 169 -86 169 -81 0 5 -156 85 -166 85 -4 0 -5 -2
-3 -4z"/>
<path d="M5860 9218 c3 -4 39 -29 80 -56 204 -132 394 -359 482 -573 17 -43
33 -77 35 -75 8 7 -48 132 -94 211 -110 191 -291 374 -468 476 -22 12 -38 20
-35 17z"/>
<path d="M5093 9113 c26 -2 67 -2 90 0 23 2 2 3 -48 3 -49 0 -68 -1 -42 -3z"/>
<path d="M4988 9103 c12 -2 30 -2 40 0 9 3 -1 5 -23 4 -22 0 -30 -2 -17 -4z"/>
<path d="M5243 9103 c9 -2 25 -2 35 0 9 3 1 5 -18 5 -19 0 -27 -2 -17 -5z"/>
<path d="M4918 9093 c6 -2 18 -2 25 0 6 3 1 5 -13 5 -14 0 -19 -2 -12 -5z"/>
<path d="M5318 9093 c6 -2 18 -2 25 0 6 3 1 5 -13 5 -14 0 -19 -2 -12 -5z"/>
<path d="M4868 9083 c6 -2 18 -2 25 0 6 3 1 5 -13 5 -14 0 -19 -2 -12 -5z"/>
<path d="M5380 9080 c34 -11 60 -11 35 0 -11 5 -29 8 -40 8 -16 0 -15 -2 5 -8z"/>
<path d="M4094 8988 c-49 -51 -100 -109 -113 -128 -20 -32 -20 -31 10 5 18 22
71 79 118 128 47 48 82 87 79 87 -3 0 -45 -42 -94 -92z"/>
<path d="M4828 9073 c7 -3 16 -2 19 1 4 3 -2 6 -13 5 -11 0 -14 -3 -6 -6z"/>
<path d="M5455 9060 c11 -5 27 -9 35 -9 9 0 8 4 -5 9 -11 5 -27 9 -35 9 -9 0
-8 -4 5 -9z"/>
<path d="M4692 9033 c-35 -14 -61 -27 -59 -29 2 -2 37 10 78 26 40 16 67 29
59 29 -8 0 -43 -12 -78 -26z"/>
<path d="M5590 9010 c19 -11 40 -19 45 -19 6 0 -6 8 -25 19 -19 11 -39 19 -45
19 -5 0 6 -8 25 -19z"/>
<path d="M5650 8985 c0 -2 17 -13 38 -24 20 -10 72 -44 115 -75 42 -30 77 -53
77 -51 0 3 -33 29 -72 58 -69 51 -158 103 -158 92z"/>
<path d="M4554 8964 c-18 -14 -18 -15 4 -4 12 6 22 13 22 15 0 8 -5 6 -26 -11z"/>
<path d="M4459 8908 c-138 -92 -271 -241 -356 -398 -41 -75 -97 -219 -89 -227
2 -2 12 20 21 49 24 76 108 240 155 302 85 115 193 216 327 303 10 6 15 12 12
12 -3 1 -35 -18 -70 -41z"/>
<path d="M5966 8748 c97 -107 173 -227 219 -344 73 -186 110 -225 210 -222
l50 1 -55 6 c-30 4 -65 12 -76 19 -36 20 -71 69 -90 124 -52 158 -157 328
-270 438 l-68 65 80 -87z"/>
<path d="M3916 8768 c-36 -58 -63 -107 -52 -97 12 11 95 149 90 149 -2 0 -19
-24 -38 -52z"/>
<path d="M3821 8590 c-17 -39 -31 -74 -31 -79 0 -5 -5 -12 -10 -14 -7 -4 -7
-5 0 -4 10 2 83 158 76 164 -2 2 -17 -28 -35 -67z"/>
<path d="M3483 8523 c31 -2 83 -2 115 0 31 2 5 3 -58 3 -63 0 -89 -1 -57 -3z"/>
<path d="M6648 8523 c34 -2 88 -2 120 0 31 2 3 3 -63 3 -66 0 -92 -1 -57 -3z"/>
<path d="M3320 8510 c-16 -6 -6 -7 30 -3 30 3 57 7 59 9 8 7 -64 2 -89 -6z"/>
<path d="M3683 8513 c9 -2 23 -2 30 0 6 3 -1 5 -18 5 -16 0 -22 -2 -12 -5z"/>
<path d="M6533 8513 c9 -2 25 -2 35 0 9 3 1 5 -18 5 -19 0 -27 -2 -17 -5z"/>
<path d="M6843 8513 c9 -2 25 -2 35 0 9 3 1 5 -18 5 -19 0 -27 -2 -17 -5z"/>
<path d="M3738 8503 c7 -3 16 -2 19 1 4 3 -2 6 -13 5 -11 0 -14 -3 -6 -6z"/>
<path d="M6470 8500 c-18 -12 -2 -12 25 0 13 6 15 9 5 9 -8 0 -22 -4 -30 -9z"/>
<path d="M6945 8494 c28 -7 55 -13 60 -13 17 2 -69 27 -90 27 -11 0 3 -6 30
-14z"/>
<path d="M3225 8485 c-39 -14 -40 -14 -5 -8 41 7 82 22 60 22 -8 0 -33 -7 -55
-14z"/>
<path d="M7046 8466 c50 -22 82 -27 39 -7 -22 11 -47 20 -55 20 -8 0 -1 -6 16
-13z"/>
<path d="M3068 8426 c-194 -87 -377 -251 -490 -436 -33 -53 -8 -24 58 69 65
93 162 187 269 264 60 42 112 70 255 134 14 7 21 12 15 12 -5 1 -54 -19 -107
-43z"/>
<path d="M7215 8392 c232 -121 421 -323 515 -552 19 -44 35 -78 37 -76 9 9
-63 162 -110 234 -95 146 -167 223 -292 313 -64 47 -214 129 -232 129 -5 0 33
-22 82 -48z"/>
<path d="M3966 8228 c-37 -39 -33 -44 7 -9 16 14 43 53 35 50 -2 0 -21 -19
-42 -41z"/>
<path d="M3493 8223 c26 -2 68 -2 95 0 26 2 4 3 -48 3 -52 0 -74 -1 -47 -3z"/>
<path d="M6643 8223 c26 -2 68 -2 95 0 26 2 4 3 -48 3 -52 0 -74 -1 -47 -3z"/>
<path d="M3360 8210 c-17 -6 -9 -7 25 -3 28 3 52 7 54 9 8 7 -54 2 -79 -6z"/>
<path d="M3653 8213 c9 -2 25 -2 35 0 9 3 1 5 -18 5 -19 0 -27 -2 -17 -5z"/>
<path d="M6510 8210 c-17 -6 -9 -7 25 -3 28 3 52 7 54 9 8 7 -54 2 -79 -6z"/>
<path d="M6854 8203 c39 -8 97 -25 130 -39 71 -29 87 -26 19 4 -59 25 -162 52
-194 51 -13 0 7 -7 45 -16z"/>
<path d="M3718 8203 c6 -2 18 -2 25 0 6 3 1 5 -13 5 -14 0 -19 -2 -12 -5z"/>
<path d="M3235 8172 c-196 -78 -353 -226 -441 -417 -35 -77 -75 -210 -73 -249
0 -12 9 15 19 59 65 286 247 502 510 602 47 18 78 32 70 32 -8 0 -47 -12 -85
-27z"/>
<path d="M3780 8190 c25 -8 147 -13 139 -6 -2 2 -40 6 -84 8 -44 3 -69 2 -55
-2z"/>
<path d="M6458 8193 c7 -3 16 -2 19 1 4 3 -2 6 -13 5 -11 0 -14 -3 -6 -6z"/>
<path d="M7080 8127 c0 -2 28 -21 63 -43 142 -87 271 -248 333 -414 7 -19 13
-28 13 -19 2 27 -78 179 -126 242 -61 79 -114 130 -183 177 -59 40 -100 63
-100 57z"/>
<path d="M2522 7894 c-16 -33 -33 -70 -36 -84 -4 -14 11 11 32 55 22 44 39 82
37 83 -2 2 -17 -22 -33 -54z"/>
<path d="M2460 7740 c-15 -55 -7 -63 9 -9 7 22 10 43 7 46 -2 3 -10 -14 -16
-37z"/>
<path d="M7776 7725 c3 -16 13 -61 21 -100 8 -38 18 -128 22 -200 8 -125 8
-126 9 -40 2 98 -19 254 -42 325 -9 25 -13 32 -10 15z"/>
<path d="M2441 7664 c0 -11 3 -14 6 -6 3 7 2 16 -1 19 -3 4 -6 -2 -5 -13z"/>
<path d="M2426 7613 c-4 -16 -8 -100 -10 -188 l-4 -160 7 150 c5 83 12 167 16
188 8 42 1 51 -9 10z"/>
<path d="M7491 7625 c0 -5 6 -37 14 -70 14 -58 14 -59 9 -11 -5 44 -22 106
-23 81z"/>
<path d="M7522 7394 c-2 -120 -24 -241 -58 -333 -14 -36 -21 -61 -15 -56 17
17 59 156 71 235 6 41 10 116 8 165 l-4 90 -2 -101z"/>
<path d="M2714 7380 c0 -58 1 -81 3 -52 2 28 2 76 0 105 -2 28 -3 5 -3 -53z"/>
<path d="M7813 7250 c0 -25 2 -35 4 -22 2 12 2 32 0 45 -2 12 -4 2 -4 -23z"/>
<path d="M2724 7229 c8 -75 52 -199 103 -287 73 -126 208 -253 340 -321 66
-33 65 -24 -2 12 -83 45 -120 71 -194 142 -122 116 -193 246 -236 436 -13 53
-14 56 -11 18z"/>
<path d="M2426 7192 c12 -141 87 -336 185 -477 106 -154 315 -321 481 -385 43
-17 83 -30 90 -30 7 0 -23 15 -68 33 -123 50 -224 112 -322 198 -192 166 -311
381 -357 643 -14 78 -14 79 -9 18z"/>
<path d="M7802 7175 c0 -16 2 -22 5 -12 2 9 2 23 0 30 -3 6 -5 -1 -5 -18z"/>
<path d="M7791 7124 c0 -11 3 -14 6 -6 3 7 2 16 -1 19 -3 4 -6 -2 -5 -13z"/>
<path d="M7781 7085 c-1 -11 -17 -58 -35 -105 -47 -120 -49 -129 -30 -95 27
47 75 186 71 204 -4 12 -5 11 -6 -4z"/>
<path d="M7411 6950 c-12 -22 -39 -62 -59 -88 -19 -26 -27 -40 -17 -32 22 18
109 150 103 156 -3 2 -15 -14 -27 -36z"/>
<path d="M7670 6810 c-11 -22 -18 -40 -15 -40 2 0 14 18 25 40 11 22 18 40 15
40 -2 0 -14 -18 -25 -40z"/>
<path d="M7265 6764 c-27 -25 -74 -62 -102 -81 -63 -42 -69 -53 -13 -21 36 21
182 147 170 147 -3 0 -27 -20 -55 -45z"/>
<path d="M7590 6690 c-100 -134 -260 -264 -410 -333 -41 -19 -86 -39 -100 -46
l-25 -11 25 6 c49 11 192 84 267 136 89 62 203 174 262 258 58 83 44 76 -19
-10z"/>
<path d="M7023 6608 c-35 -16 -102 -38 -150 -49 -64 -14 -74 -18 -35 -14 68 7
169 39 224 70 59 34 37 30 -39 -7z"/>
<path d="M3255 6585 c17 -8 37 -14 45 -14 8 0 -1 7 -20 14 -46 18 -64 17 -25
0z"/>
<path d="M3335 6560 c11 -5 31 -8 45 -8 l25 0 -25 8 c-14 4 -34 8 -45 8 l-20
1 20 -9z"/>
<path d="M3465 6536 c85 -18 113 -34 140 -80 14 -23 25 -36 25 -31 0 25 -43
76 -78 94 -22 11 -63 22 -93 25 l-54 6 60 -14z"/>
<path d="M6743 6533 c9 -2 23 -2 30 0 6 3 -1 5 -18 5 -16 0 -22 -2 -12 -5z"/>
<path d="M6669 6503 c-61 -52 -59 -24 -59 -823 l0 -730 -1485 0 -1485 0 -3
733 -2 732 -3 -737 -2 -738 1495 0 1495 0 0 738 c0 822 -3 781 69 829 19 13
29 23 23 23 -6 0 -25 -12 -43 -27z"/>
<path d="M7000 6290 c-20 -6 -21 -8 -5 -8 11 0 29 3 40 8 25 11 -1 11 -35 0z"/>
<path d="M3238 6283 c7 -3 16 -2 19 1 4 3 -2 6 -13 5 -11 0 -14 -3 -6 -6z"/>
<path d="M3298 6273 c6 -2 18 -2 25 0 6 3 1 5 -13 5 -14 0 -19 -2 -12 -5z"/>
<path d="M3345 5513 c0 -767 0 -772 21 -800 11 -15 36 -38 54 -50 l33 -23
1677 0 1677 0 33 23 c18 12 43 35 54 50 21 28 21 35 24 792 l2 764 23 4 c19 4
18 4 -5 6 l-28 1 -2 -767 -3 -768 -22 -31 c-49 -69 88 -64 -1761 -64 l-1669 0
-34 23 c-67 45 -63 4 -69 847 l-5 765 0 -772z"/>
<path d="M2023 3613 c26 -2 68 -2 95 0 26 2 4 3 -48 3 -52 0 -74 -1 -47 -3z"/>
<path d="M4627 3613 c18 -2 50 -2 70 0 21 2 7 4 -32 4 -38 0 -55 -2 -38 -4z"/>
<path d="M5983 3613 c20 -2 54 -2 75 0 20 2 3 4 -38 4 -41 0 -58 -2 -37 -4z"/>
<path d="M8133 3613 c20 -2 54 -2 75 0 20 2 3 4 -38 4 -41 0 -58 -2 -37 -4z"/>
<path d="M1816 3594 c-33 -8 -62 -17 -65 -21 -3 -3 8 -2 24 2 17 4 62 13 100
20 45 8 57 13 35 13 -19 0 -62 -6 -94 -14z"/>
<path d="M2208 3603 c12 -2 30 -2 40 0 9 3 -1 5 -23 4 -22 0 -30 -2 -17 -4z"/>
<path d="M4491 3599 c-53 -16 -32 -18 34 -4 36 8 48 13 30 13 -16 0 -45 -4
-64 -9z"/>
<path d="M4773 3603 c9 -2 25 -2 35 0 9 3 1 5 -18 5 -19 0 -27 -2 -17 -5z"/>
<path d="M5873 3603 c9 -2 23 -2 30 0 6 3 -1 5 -18 5 -16 0 -22 -2 -12 -5z"/>
<path d="M6123 3603 c9 -2 25 -2 35 0 9 3 1 5 -18 5 -19 0 -27 -2 -17 -5z"/>
<path d="M8018 3603 c12 -2 32 -2 45 0 12 2 2 4 -23 4 -25 0 -35 -2 -22 -4z"/>
<path d="M8278 3603 c12 -2 32 -2 45 0 12 2 2 4 -23 4 -25 0 -35 -2 -22 -4z"/>
<path d="M2288 3593 c6 -2 18 -2 25 0 6 3 1 5 -13 5 -14 0 -19 -2 -12 -5z"/>
<path d="M4848 3593 c7 -3 16 -2 19 1 4 3 -2 6 -13 5 -11 0 -14 -3 -6 -6z"/>
<path d="M5795 3590 c-13 -5 -14 -9 -5 -9 8 0 24 4 35 9 13 5 14 9 5 9 -8 0
-24 -4 -35 -9z"/>
<path d="M6198 3593 c7 -3 16 -2 19 1 4 3 -2 6 -13 5 -11 0 -14 -3 -6 -6z"/>
<path d="M7925 3590 c-14 -7 -8 -8 20 -3 22 3 42 7 44 9 9 8 -45 2 -64 -6z"/>
<path d="M8425 3581 c38 -11 71 -18 73 -16 5 5 -62 23 -109 30 -18 3 -3 -4 36
-14z"/>
<path d="M2410 3566 c46 -14 86 -23 88 -21 5 4 -97 34 -140 40 -18 3 5 -6 52
-19z"/>
<path d="M4910 3575 c46 -18 64 -17 25 0 -16 8 -37 14 -45 14 -8 0 1 -7 20
-14z"/>
<path d="M6238 3583 c7 -3 16 -2 19 1 4 3 -2 6 -13 5 -11 0 -14 -3 -6 -6z"/>
<path d="M5715 3561 c-22 -11 -35 -19 -30 -19 14 -1 93 36 80 37 -5 0 -28 -8
-50 -18z"/>
<path d="M7788 3546 c-222 -84 -435 -274 -542 -483 -30 -58 -9 -35 29 32 118
211 316 373 565 461 36 12 58 23 50 23 -8 0 -54 -15 -102 -33z"/>
<path d="M1675 3549 c-22 -10 -29 -16 -16 -13 37 10 88 33 71 33 -8 0 -33 -9
-55 -20z"/>
<path d="M3540 2490 l0 -1080 265 0 265 0 0 623 c0 342 5 649 10 682 5 33 11
76 14 95 5 27 2 23 -11 -15 -15 -44 -17 -125 -20 -712 l-4 -663 -255 0 -254 0
0 1070 0 1070 235 0 234 0 4 -132 3 -133 2 138 2 137 -245 0 -245 0 0 -1080z"/>
<path d="M4345 3537 c-83 -44 -229 -192 -277 -279 -20 -38 -33 -68 -29 -68 4
0 17 21 30 47 53 110 185 243 301 303 30 16 51 29 45 29 -5 0 -37 -14 -70 -32z"/>
<path d="M5030 3521 c64 -39 163 -128 208 -186 13 -18 18 -21 12 -9 -19 43
-113 135 -187 184 -41 27 -80 50 -86 50 -7 0 17 -18 53 -39z"/>
<path d="M6385 3528 c80 -41 201 -164 239 -243 16 -33 37 -80 47 -105 10 -25
18 -39 19 -32 0 25 -53 138 -96 203 -48 72 -131 147 -206 185 -26 13 -51 24
-55 24 -4 -1 19 -15 52 -32z"/>
<path d="M8550 3540 c8 -5 20 -10 25 -10 6 0 3 5 -5 10 -8 5 -19 10 -25 10 -5
0 -3 -5 5 -10z"/>
<path d="M2585 3497 c271 -142 463 -376 549 -668 14 -46 25 -76 25 -65 1 26
-54 186 -85 248 -76 151 -193 293 -321 391 -61 47 -218 137 -238 137 -5 -1 26
-20 70 -43z"/>
<path d="M5635 3523 c-51 -27 -141 -100 -185 -150 -58 -65 -133 -181 -127
-196 4 -9 6 -9 6 0 2 27 97 161 156 219 34 34 90 78 124 99 33 21 61 39 61 41
0 6 -2 5 -35 -13z"/>
<path d="M1538 3486 c-111 -63 -164 -104 -254 -198 -81 -85 -151 -182 -198
-275 -40 -80 -31 -77 14 5 118 216 261 362 460 471 41 22 70 41 65 41 -6 0
-45 -20 -87 -44z"/>
<path d="M8653 3492 c239 -131 407 -353 476 -627 11 -44 22 -89 25 -100 3 -11
3 2 0 29 -7 62 -54 207 -90 278 -96 189 -251 350 -421 437 -70 35 -63 23 10
-17z"/>
<path d="M5275 3270 c22 -45 29 -52 20 -20 -4 14 -14 32 -22 40 -12 12 -11 7
2 -20z"/>
<path d="M4031 3264 c0 -11 3 -14 6 -6 3 7 2 16 -1 19 -3 4 -6 -2 -5 -13z"/>
<path d="M8022 3204 c-99 -26 -164 -64 -237 -138 -38 -39 -84 -98 -102 -131
-36 -68 -83 -205 -83 -241 l0 -24 551 0 551 0 -6 48 c-16 112 -67 259 -97 278
-6 4 0 -13 14 -37 26 -44 60 -155 72 -236 l7 -43 -541 0 c-388 0 -541 3 -541
11 0 32 36 142 65 204 67 138 167 233 300 285 52 21 78 24 194 24 74 1 122 4
105 7 -53 12 -198 8 -252 -7z"/>
<path d="M2021 3196 c2 -2 49 -5 104 -8 55 -3 87 -2 70 2 -31 8 -182 13 -174
6z"/>
<path d="M8354 3180 c28 -11 52 -18 54 -15 6 6 -67 35 -87 35 -9 -1 6 -10 33
-20z"/>
<path d="M1900 3168 c-106 -41 -184 -103 -257 -205 -44 -62 -103 -184 -102
-213 0 -8 10 12 23 45 76 196 241 352 406 384 35 7 38 9 15 9 -16 1 -55 -9
-85 -20z"/>
<path d="M2245 3170 c27 -12 43 -12 25 0 -8 5 -22 9 -30 9 -10 0 -8 -3 5 -9z"/>
<path d="M4463 3173 c20 -2 54 -2 75 0 20 2 3 4 -38 4 -41 0 -58 -2 -37 -4z"/>
<path d="M5740 3171 c-15 -5 12 -6 65 -3 196 10 308 -52 371 -205 13 -32 24
-51 24 -42 0 9 -14 43 -31 77 -36 73 -101 134 -167 157 -52 19 -222 29 -262
16z"/>
<path d="M4333 3145 c-66 -30 -147 -105 -184 -170 -41 -72 -36 -80 7 -9 61
101 130 159 227 189 23 8 33 14 22 14 -11 1 -44 -10 -72 -24z"/>
<path d="M4631 3155 c65 -21 125 -64 164 -120 19 -27 35 -44 35 -39 0 5 -17
32 -38 59 -38 52 -143 116 -186 114 -12 0 0 -7 25 -14z"/>
<path d="M2343 3128 c32 -17 88 -61 125 -97 36 -36 56 -52 44 -34 -40 57 -182
163 -217 163 -5 0 16 -15 48 -32z"/>
<path d="M5640 3136 c-89 -47 -186 -175 -205 -271 -3 -16 5 -2 18 32 43 112
112 192 202 234 33 16 53 29 45 29 -8 -1 -35 -11 -60 -24z"/>
<path d="M8465 3129 c17 -12 52 -45 79 -73 28 -29 40 -38 28 -21 -25 38 -68
77 -107 100 l-30 17 30 -23z"/>
<path d="M6697 3080 c3 -30 7 -57 9 -59 7 -8 2 64 -6 89 -6 16 -7 6 -3 -30z"/>
<path d="M7192 2948 c-17 -40 -33 -86 -37 -103 -3 -16 9 8 28 55 19 47 37 93
42 103 4 9 5 17 2 17 -3 0 -19 -33 -35 -72z"/>
<path d="M6713 2970 c0 -25 2 -35 4 -22 2 12 2 32 0 45 -2 12 -4 2 -4 -23z"/>
<path d="M4835 2965 c17 -49 35 -122 36 -145 0 -14 3 -19 6 -11 7 18 -15 119
-34 151 -9 16 -12 18 -8 5z"/>
<path d="M2562 2901 c18 -32 34 -58 36 -56 5 5 -47 103 -58 110 -6 3 4 -21 22
-54z"/>
<path d="M1021 2846 c-17 -53 -31 -106 -30 -119 0 -12 9 10 19 48 10 39 26 90
35 114 8 24 13 46 11 48 -3 3 -18 -38 -35 -91z"/>
<path d="M6720 2170 l0 -750 -245 0 -244 0 -4 708 c-2 494 -7 718 -15 742
l-11 35 6 -35 c3 -19 8 -356 10 -747 l4 -713 254 0 255 0 0 755 c0 415 -2 755
-5 755 -3 0 -5 -337 -5 -750z"/>
<path d="M4106 2885 c-3 -9 -6 -22 -5 -28 0 -7 5 -1 10 12 5 13 8 26 5 28 -2
2 -6 -3 -10 -12z"/>
<path d="M2605 2815 c20 -62 45 -163 46 -185 2 -23 2 -23 6 -3 5 24 -31 166
-48 192 -9 13 -9 12 -4 -4z"/>
<path d="M5411 2755 c-7 -50 -11 -290 -11 -705 l0 -630 -250 0 -250 0 -1 633
c-1 347 -5 657 -9 687 -9 53 -9 53 -4 -15 2 -38 4 -350 4 -692 l0 -623 260 0
260 0 0 623 c0 373 4 656 10 706 14 105 6 118 -9 16z"/>
<path d="M7130 2745 c-7 -36 -10 -68 -8 -70 3 -3 10 25 17 61 6 37 10 68 8 71
-3 2 -10 -26 -17 -62z"/>
<path d="M3162 2715 c0 -16 2 -22 5 -12 2 9 2 23 0 30 -3 6 -5 -1 -5 -18z"/>
<path d="M9168 2553 l5 -193 -787 -3 -786 -2 787 0 788 0 3 140 c1 77 -1 165
-6 195 -5 35 -6 -15 -4 -137z"/>
<path d="M1521 2680 c-6 -28 -11 -59 -10 -68 1 -9 7 12 15 47 8 35 12 66 10
68 -2 3 -9 -19 -15 -47z"/>
<path d="M982 2675 c0 -16 2 -22 5 -12 2 9 2 23 0 30 -3 6 -5 -1 -5 -18z"/>
<path d="M3173 2645 c0 -22 2 -30 4 -17 2 12 2 30 0 40 -3 9 -5 -1 -4 -23z"/>
<path d="M7105 2556 c-7 -105 -1 -233 15 -297 6 -22 7 -10 2 36 -4 39 -6 136
-5 218 1 81 0 147 -2 147 -2 0 -6 -47 -10 -104z"/>
<path d="M974 2475 c0 -93 2 -133 3 -88 2 45 2 122 0 170 -1 48 -3 12 -3 -82z"/>
<path d="M2662 2504 c-1 -56 -4 -123 -7 -150 l-4 -49 10 48 c5 27 8 94 6 150
l-3 102 -2 -101z"/>
<path d="M3182 2490 c-8 -434 -185 -787 -487 -971 -97 -59 -114 -77 -27 -29
190 107 342 287 432 513 66 165 93 320 88 497 l-4 105 -2 -115z"/>
<path d="M1504 2465 c0 -71 1 -99 3 -62 2 37 2 96 0 130 -2 34 -3 4 -3 -68z"/>
<path d="M1512 2305 c0 -16 2 -22 5 -12 2 9 2 23 0 30 -3 6 -5 -1 -5 -18z"/>
<path d="M7600 2315 c0 -37 40 -167 76 -239 37 -77 98 -156 154 -202 19 -16 3
6 -36 48 -83 90 -135 188 -169 322 -13 50 -24 82 -25 71z"/>
<path d="M982 2270 c0 -19 2 -27 5 -17 2 9 2 25 0 35 -3 9 -5 1 -5 -18z"/>
<path d="M2642 2280 c0 -14 2 -19 5 -12 2 6 2 18 0 25 -3 6 -5 1 -5 -13z"/>
<path d="M1521 2259 c-1 -19 29 -122 34 -117 2 2 -5 32 -15 68 -10 36 -19 58
-19 49z"/>
<path d="M2618 2193 c-9 -32 -15 -59 -13 -61 5 -5 37 97 33 108 -2 5 -11 -16
-20 -47z"/>
<path d="M992 2215 c0 -11 4 -31 8 -45 6 -20 8 -21 8 -5 0 11 -4 31 -8 45 -6
20 -8 21 -8 5z"/>
<path d="M7132 2200 c0 -14 2 -19 5 -12 2 6 2 18 0 25 -3 6 -5 1 -5 -13z"/>
<path d="M7140 2158 c0 -9 16 -61 34 -114 86 -238 247 -437 456 -560 79 -47
201 -98 260 -108 19 -3 -4 7 -52 23 -323 111 -547 337 -660 666 -21 61 -38
102 -38 93z"/>
<path d="M1010 2132 c0 -21 78 -216 96 -238 12 -15 11 -12 -2 16 -9 19 -34 80
-55 135 -21 55 -39 94 -39 87z"/>
<path d="M1560 2126 c0 -11 50 -106 55 -106 3 0 -7 24 -21 53 -28 55 -34 65
-34 53z"/>
<path d="M2551 2038 c-52 -92 -134 -174 -219 -218 -32 -16 -53 -29 -49 -30 16
-1 94 44 145 84 54 42 112 117 151 194 38 75 18 54 -28 -30z"/>
<path d="M8720 2079 c0 -39 -139 -187 -217 -231 -69 -39 -69 -48 -1 -11 61 32
162 130 204 198 l29 46 222 -3 c121 -2 219 0 216 5 -7 12 -453 9 -453 -4z"/>
<path d="M9152 2017 c-18 -71 -97 -216 -162 -299 -107 -136 -278 -254 -454
-312 -131 -44 -251 -59 -415 -54 -81 2 -128 1 -106 -3 69 -13 266 -10 357 6
323 57 587 244 727 515 46 89 78 176 68 186 -2 3 -9 -15 -15 -39z"/>
<path d="M1628 1994 c35 -67 186 -192 252 -208 17 -4 14 -1 -9 10 -65 29 -148
93 -191 146 -57 70 -65 77 -52 52z"/>
<path d="M1136 1842 c10 -19 32 -48 47 -65 21 -24 19 -18 -9 23 -46 67 -63 86
-38 42z"/>
<path d="M7875 1840 c7 -11 85 -53 90 -48 2 2 -19 16 -47 31 -27 15 -47 23
-43 17z"/>
<path d="M2235 1780 c-13 -6 -15 -9 -5 -9 8 0 22 4 30 9 18 12 2 12 -25 0z"/>
<path d="M8005 1775 c17 -8 44 -14 60 -13 29 0 29 0 -5 7 -19 4 -46 11 -60 14
-20 6 -19 4 5 -8z"/>
<path d="M8310 1770 c-20 -6 -21 -8 -5 -8 11 0 29 3 40 8 25 11 -1 11 -35 0z"/>
<path d="M1953 1763 c9 -2 23 -2 30 0 6 3 -1 5 -18 5 -16 0 -22 -2 -12 -5z"/>
<path d="M2080 1760 l-85 -6 80 -1 c44 0 94 3 110 7 26 7 27 8 5 7 -14 0 -63
-4 -110 -7z"/>
<path d="M8138 1753 c23 -2 61 -2 85 0 23 2 4 4 -43 4 -47 0 -66 -2 -42 -4z"/>
<path d="M1236 1710 c63 -74 194 -184 262 -219 43 -23 21 -3 -50 44 -40 26
-111 84 -158 129 -46 45 -71 65 -54 46z"/>
<path d="M1544 1465 c22 -17 156 -70 201 -80 17 -3 -10 9 -60 28 -49 18 -106
41 -125 51 -27 13 -31 14 -16 1z"/>
<path d="M2525 1430 c-85 -35 -222 -69 -330 -80 l-80 -9 86 4 c47 2 124 13
170 25 86 22 207 66 224 81 13 13 8 11 -70 -21z"/>
<path d="M1788 1373 c7 -3 16 -2 19 1 4 3 -2 6 -13 5 -11 0 -14 -3 -6 -6z"/>
<path d="M1845 1359 c17 -6 84 -12 150 -14 l120 -3 -110 8 c-60 4 -128 10
-150 14 -37 5 -38 5 -10 -5z"/>
<path d="M7938 1363 c6 -2 18 -2 25 0 6 3 1 5 -13 5 -14 0 -19 -2 -12 -5z"/>
</g>
</svg>
